<svg width="200" height="200" viewBox="0 0 200 200" fill="none" xmlns="http://www.w3.org/2000/svg">
<path d="M170.935 127.625C174.101 124.459 174.101 119.325 170.935 116.158C167.768 112.992 162.634 112.992 159.468 116.158C156.301 119.325 156.301 124.459 159.468 127.625C162.634 130.792 167.768 130.792 170.935 127.625Z" fill="#FDD34F"/>
<path d="M158.809 119.614C159.497 116.999 162.094 115.019 164.797 115.048" stroke="white" stroke-width="0.6" stroke-miterlimit="10" stroke-linecap="round" stroke-linejoin="round"/>
<path d="M182.262 147.174L165.578 129.745L148.148 146.429L164.833 163.859L182.262 147.174Z" fill="#6C6CE7"/>
<path d="M151.684 145.11C156.408 140.734 161.133 136.358 165.858 131.981" stroke="white" stroke-width="0.6" stroke-miterlimit="10" stroke-linecap="round" stroke-linejoin="round"/>
<path d="M144.344 68.3565C136.365 68.6377 128.289 68.4081 120.412 67.1057C118.583 66.8033 116.709 66.4385 115.152 65.4317C113.595 64.4253 112.415 62.6217 112.676 60.7865C112.906 59.1709 114.17 57.8893 115.542 57.0061C116.915 56.1229 118.457 55.5113 119.761 54.5309C122.26 52.6537 123.671 49.4217 123.351 46.3125C123.03 43.2033 120.987 40.3281 118.157 39.0009L46.4465 50.7373C46.6141 55.4545 46.4929 60.1553 46.6605 64.8725C44.7081 64.2293 42.5129 64.3573 40.6485 65.2229C38.7841 66.0885 37.8641 68.7669 36.2865 70.0849C31.0541 74.4561 26.1065 79.4397 23.2781 85.6433C20.4493 91.8469 20.0501 99.4881 23.6609 105.271C26.1013 109.18 30.1665 111.922 34.5709 113.278C38.9753 114.634 43.7025 114.686 48.2617 114.014C50.3409 113.708 52.4597 113.255 54.5217 113.661C56.5837 114.068 58.6041 115.623 58.7533 117.719C58.8989 119.766 57.2137 121.561 55.3137 122.338C53.4137 123.114 51.3065 123.14 49.2681 123.384C47.2301 123.628 45.0845 124.176 43.7065 125.698C41.9405 127.647 41.9785 130.806 43.3617 133.043C44.7449 135.28 47.2161 136.669 49.7693 137.302C52.3221 137.935 54.9869 137.9 57.6165 137.861C70.8757 137.664 84.1349 137.466 97.3941 137.269C109.131 137.094 121.135 136.302 131.024 129.978C140.912 123.652 148.267 113.399 150.833 101.945C153.398 90.4913 151.071 77.9753 144.344 68.3565Z" fill="#FFE4EB"/>
<path d="M153.91 188.518C153.91 191.834 136.983 191.392 116.101 191.392C95.2206 191.392 78.293 191.392 78.293 188.518C78.293 185.644 95.2202 185.644 116.101 185.644C136.982 185.644 153.91 185.644 153.91 188.518Z" fill="#FFE4EB"/>
<path d="M80.8438 130.39L99.6565 126.276L84.4633 105.93L80.8438 130.39Z" fill="#434582"/>
<path d="M103.437 88.744C100.495 89.5024 97.6095 90.288 94.6679 91.0464C94.7399 91.8612 94.1579 92.6856 93.3659 92.89C92.5739 93.0948 91.6867 92.6724 91.3551 91.9244C89.4587 92.5976 87.5623 93.2708 85.6655 93.944C84.9727 99.0524 84.0795 104.274 83.3867 109.383C85.4923 112.339 87.9307 114.984 90.5423 117.504C98.1115 114.592 105.641 111.826 113.21 108.913L103.437 88.744Z" fill="white"/>
<path d="M89.8945 93.02C90.3669 93.884 91.2565 94.5204 92.2445 94.7012C93.2325 94.882 94.2981 94.6032 95.0605 93.9652C95.8229 93.3272 96.2657 92.3424 96.2305 91.364" stroke="#060305" stroke-width="0.6" stroke-miterlimit="10" stroke-linecap="round" stroke-linejoin="round"/>
<path d="M88.9648 108.244C90.1164 109.136 91.7892 109.294 93.0868 108.633C94.3848 107.972 95.2416 106.527 95.198 105.071" stroke="#060305" stroke-width="0.6" stroke-miterlimit="10" stroke-linecap="round" stroke-linejoin="round"/>
<path d="M104.363 102.894C105.22 103.535 106.378 103.755 107.41 103.474C108.443 103.194 109.33 102.418 109.745 101.432" stroke="#060305" stroke-width="0.6" stroke-miterlimit="10" stroke-linecap="round" stroke-linejoin="round"/>
<path d="M74.2567 98.1776C73.3259 98.516 72.4011 98.8537 71.4699 99.1917C69.2371 95.7465 67.0043 92.3017 64.7715 88.8565C63.9167 87.5373 63.0571 86.2121 62.0107 85.0393C60.9639 83.8665 59.7015 82.8076 58.2423 82.222C54.4595 83.5976 50.6451 84.9601 46.8623 86.3357C45.0727 85.7109 43.2831 85.0856 41.4935 84.4608C41.1127 84.328 40.7187 84.1928 40.3167 84.222C39.9143 84.2508 39.6287 84.5064 39.5195 84.8948C41.7211 86.9416 43.9227 88.9881 46.1243 91.0349C49.0635 91.5705 52.0083 91.9952 54.9479 92.5308C56.5703 96.6392 58.3263 100.724 60.1663 104.739C60.8971 106.334 61.6559 107.874 62.9875 109.016C64.4955 110.309 66.4547 110.984 68.4231 111.254C70.3915 111.524 72.3895 111.417 74.3731 111.309L74.9519 109.984C74.7791 106.052 74.4295 102.11 74.2567 98.1776Z" fill="#C14F4F"/>
<path d="M71.5255 99.0632C71.2071 99.2612 70.8887 99.4588 70.5703 99.6568" stroke="#060305" stroke-width="0.6" stroke-miterlimit="10" stroke-linecap="round" stroke-linejoin="round"/>
<path d="M54.957 92.52C55.2026 92.4708 55.4482 92.4216 55.6938 92.3728" stroke="#060305" stroke-width="0.6" stroke-miterlimit="10" stroke-linecap="round" stroke-linejoin="round"/>
<path d="M52.2461 87.6828C53.2037 87.0384 54.4353 86.8172 55.5569 87.088" stroke="#060305" stroke-width="0.6" stroke-miterlimit="10" stroke-linecap="round" stroke-linejoin="round"/>
<path d="M150.668 65.8229C150.496 65.7445 150.2 65.748 150.028 65.8256C148.979 66.2984 147.9 66.8052 146.851 67.2784C148.486 65.5968 150.102 63.8881 151.737 62.2065C151.615 62.0273 151.421 61.8992 151.209 61.8576C150.997 61.8164 150.73 61.8892 150.551 62.0108C149.389 62.7984 148.253 63.6172 147.091 64.4048C148.219 62.796 149.23 61.1124 150.113 59.3576C149.929 59.1888 149.677 59.0964 149.427 59.106C149.177 59.1156 148.893 59.1756 148.722 59.3584C148.543 59.0932 148.176 59.0104 147.863 59.076C147.55 59.142 147.31 59.384 147.031 59.5412C144.959 60.7104 143.084 61.9561 141.169 63.3685C139.516 63.3013 137.857 63.2841 136.203 63.2169C136.131 61.7265 136.058 60.236 135.986 58.7456C135.968 58.3776 135.947 57.9972 135.783 57.6672C135.62 57.3368 135.205 57.1181 134.839 57.1625C133.933 59.5429 133.027 61.9232 132.121 64.3036C131.477 65.9932 131.205 67.842 131.569 69.6128C129.239 74.9936 126.833 80.2492 124.503 85.6301C122.563 85.9313 120.568 86.2293 118.629 86.5305L121.661 99.6241C124.649 98.8065 127.684 97.9696 130.321 96.3436C132.958 94.718 134.761 91.8797 135.785 88.9561C137.599 83.7809 139.517 78.5265 141.331 73.3513C144.791 71.3393 148.071 68.9228 151.035 66.2332C150.976 66.0532 150.84 65.9013 150.668 65.8229Z" fill="#C14F4F"/>
<path d="M124.488 85.7753C124.74 85.9889 124.992 86.2025 125.244 86.4161" stroke="#060305" stroke-width="0.6" stroke-miterlimit="10" stroke-linecap="round" stroke-linejoin="round"/>
<path d="M136.254 63.7472C137.253 65.0252 137.56 66.8132 137.045 68.3512" stroke="#060305" stroke-width="0.6" stroke-miterlimit="10" stroke-linecap="round" stroke-linejoin="round"/>
<path d="M140.379 65.1433C140.977 66.0461 141.575 66.9493 142.174 67.8525" stroke="#060305" stroke-width="0.6" stroke-miterlimit="10" stroke-linecap="round" stroke-linejoin="round"/>
<path d="M141.353 73.4329C141.083 73.6297 140.813 73.8265 140.543 74.0233" stroke="#060305" stroke-width="0.6" stroke-miterlimit="10" stroke-linecap="round" stroke-linejoin="round"/>
<path d="M143.242 64.5196C144.281 63.6932 145.319 62.8664 146.358 62.04C147.36 61.2424 148.236 60.2908 148.968 59.24" stroke="#060305" stroke-width="0.6" stroke-miterlimit="10" stroke-linecap="round" stroke-linejoin="round"/>
<path d="M144.57 66.0633C145.532 65.4305 146.494 64.7977 147.456 64.1653" stroke="#060305" stroke-width="0.6" stroke-miterlimit="10" stroke-linecap="round" stroke-linejoin="round"/>
<path d="M145.055 68.1304C145.771 67.7564 146.486 67.3824 147.202 67.0084" stroke="#060305" stroke-width="0.6" stroke-miterlimit="10" stroke-linecap="round" stroke-linejoin="round"/>
<path d="M166.277 163.043C164.225 163.512 162.022 163.293 160.104 162.429C158.185 161.564 156.562 160.059 155.554 158.211C150.489 160.47 145.038 162.377 139.973 164.636C143.174 168.402 146.262 171.948 149.464 175.714L169.42 164.224C168.975 163.26 167.312 162.806 166.277 163.043Z" fill="#060305"/>
<path d="M149.059 174.592C155.419 170.935 161.779 167.279 168.139 163.623" stroke="white" stroke-width="0.6" stroke-miterlimit="10" stroke-linecap="round" stroke-linejoin="round"/>
<path d="M156.242 162.725C156.866 162.301 157.489 161.877 158.113 161.454" stroke="white" stroke-width="0.6" stroke-miterlimit="10" stroke-linecap="round" stroke-linejoin="round"/>
<path d="M157.242 163.733C157.964 163.211 158.686 162.689 159.408 162.167" stroke="white" stroke-width="0.6" stroke-miterlimit="10" stroke-linecap="round" stroke-linejoin="round"/>
<path d="M110.645 186.799C108.712 186.011 107.173 184.314 106.575 182.314C105.978 180.314 106.335 178.051 107.52 176.332C101.809 175.952 96.0274 175.142 90.3166 174.762C89.8682 179.398 89.3586 183.872 88.9102 188.508L111.62 188.977C111.843 188.266 111.335 187.081 110.645 186.799Z" fill="#060305"/>
<path d="M89.1484 187.162C96.4848 187.374 103.822 187.586 111.158 187.798" stroke="white" stroke-width="0.6" stroke-miterlimit="10" stroke-linecap="round" stroke-linejoin="round"/>
<path d="M100.543 180.804C101.951 180.826 103.36 180.848 104.768 180.87" stroke="white" stroke-width="0.6" stroke-miterlimit="10" stroke-linecap="round" stroke-linejoin="round"/>
<path d="M100.445 182.297C102.017 182.297 103.589 182.297 105.161 182.297" stroke="white" stroke-width="0.6" stroke-miterlimit="10" stroke-linecap="round" stroke-linejoin="round"/>
<path d="M141.123 135.815C138.55 132.175 135.191 128.395 132.172 125.115C126.804 119.281 114.367 110.565 114.367 110.565C114.367 110.565 113.172 108.14 112.581 106.961C104.711 110.131 97.1847 113.232 89.3151 116.401C89.5203 119.971 89.7323 123.579 90.7595 127.004C91.5547 129.655 96.9107 147.025 96.9107 147.025C92.0963 159.503 88.8555 175.694 88.8555 175.694C93.7235 176.133 103.441 177.176 108.309 177.615C110.214 170.587 111.856 163.435 113.761 156.408C115.862 148.655 114.584 140.275 112.238 132.592C116.161 135.598 121.501 140.58 125.423 143.586C133.087 159.306 141.221 169.052 141.221 169.052L157.535 158.733C157.535 158.733 147.91 145.413 141.123 135.815Z" fill="#F74C32"/>
<path d="M89.7461 118.456C97.5597 115.294 105.373 112.131 113.187 108.969" stroke="#060305" stroke-width="0.6" stroke-miterlimit="10" stroke-linecap="round" stroke-linejoin="round"/>
<path d="M110.531 126.304C111.157 128.563 111.783 130.822 112.409 133.08" stroke="#060305" stroke-width="0.6" stroke-miterlimit="10" stroke-linecap="round" stroke-linejoin="round"/>
<path d="M91.1406 117.955C92.865 127.81 95.5666 137.494 99.1926 146.819C95.3506 155.843 92.647 165.451 91.8002 175.222" stroke="#060305" stroke-width="0.6" stroke-miterlimit="10" stroke-linecap="round" stroke-linejoin="round"/>
<path d="M111.523 129.767C116.549 133.579 121.574 137.392 126.599 141.204C131.108 151.373 136.322 159.688 142.657 167.687" stroke="#060305" stroke-width="0.6" stroke-miterlimit="10" stroke-linecap="round" stroke-linejoin="round"/>
<path d="M92.3594 124.47C93.7598 122.351 94.053 119.542 93.121 117.179" stroke="#060305" stroke-width="0.6" stroke-miterlimit="10" stroke-linecap="round" stroke-linejoin="round"/>
<path d="M111.434 109.801C112.566 111.401 114.019 112.772 115.681 113.81" stroke="#060305" stroke-width="0.6" stroke-miterlimit="10" stroke-linecap="round" stroke-linejoin="round"/>
<path d="M92.3285 79.5209C92.6813 80.3705 92.3073 81.3685 91.7101 82.0681C91.1129 82.7681 90.3173 83.2645 89.6289 83.8749" stroke="#060305" stroke-width="0.6" stroke-miterlimit="10" stroke-linecap="round" stroke-linejoin="round"/>
<path d="M96.3203 89.0812C98.2575 88.2896 99.8127 86.6136 100.457 84.6224" stroke="#060305" stroke-width="0.6" stroke-miterlimit="10" stroke-linecap="round" stroke-linejoin="round"/>
<path d="M99.9777 78.8949C99.4081 78.9273 98.8421 78.9689 98.2777 79.0141C98.3281 79.8397 98.2141 80.6753 97.9345 81.4537C97.8865 80.6489 97.7397 79.8513 97.5073 79.0797C95.9957 79.2097 94.4909 79.3565 92.9621 79.4433C92.9997 80.3585 92.6241 81.2825 91.9593 81.9125C91.3033 82.5337 90.4109 82.8573 89.7461 83.4693C89.0505 84.1097 88.6489 85.0581 88.6729 86.0033C88.6969 86.9489 89.1465 87.8753 89.8737 88.4797L94.4829 89.5013C96.7273 89.3245 98.6569 87.6117 99.5417 85.5417C100.426 83.4713 100.421 81.1021 99.9777 78.8949Z" fill="#060305"/>
<path d="M95.0688 91.6897C94.9816 91.2553 94.9328 90.8109 94.846 90.3765C95.3544 90.4641 95.9032 90.2453 96.2116 89.8317C96.52 89.4181 96.5736 88.8297 96.3448 88.3677C96.116 87.9053 95.6156 87.5913 95.0996 87.5857C94.9636 87.7629 94.822 87.9517 94.686 88.1293C94.5236 87.5977 94.3848 87.0861 94.2224 86.5545C94.0808 86.0909 93.5932 85.7257 93.1348 85.5681C92.6764 85.4105 92.1468 85.4765 91.7412 85.7417C91.3168 85.5669 90.8136 85.5769 90.3976 85.7713C89.9816 85.9657 89.6536 86.3397 89.5156 86.7777C89.3244 87.3829 89.2216 87.9889 89.0864 88.6089C88.9692 89.1453 89.1232 89.7737 89.4084 90.2429C89.6936 90.7121 90.1584 91.0693 90.6852 91.2233C90.76 91.6161 90.8432 92.0349 90.918 92.4277C91.0988 93.3749 92.3168 93.8725 93.2716 93.7361C94.2264 93.6001 95.258 92.6353 95.0688 91.6897Z" fill="#C14F4F"/>
<path d="M93.243 87.6337C93.243 87.4953 93.131 87.3833 92.9926 87.3833C92.8542 87.3833 92.7422 87.4953 92.7422 87.6337C92.7422 87.7721 92.8542 87.8841 92.9926 87.8841C93.131 87.8841 93.243 87.7721 93.243 87.6337Z" fill="#060305"/>
<path d="M90.5047 87.4577C90.5047 87.3193 90.3927 87.2073 90.2543 87.2073C90.1159 87.2073 90.0039 87.3193 90.0039 87.4577C90.0039 87.5961 90.1159 87.7081 90.2543 87.7081C90.3927 87.7081 90.5047 87.5961 90.5047 87.4577Z" fill="#060305"/>
<path d="M94.9922 88.7252C95.2382 88.6368 95.4846 88.548 95.7306 88.4592" stroke="#060305" stroke-width="0.6" stroke-miterlimit="10" stroke-linecap="round" stroke-linejoin="round"/>
<path d="M94.6055 90.322C94.7287 90.3444 94.8519 90.3668 94.9751 90.3896" stroke="#060305" stroke-width="0.6" stroke-miterlimit="10" stroke-linecap="round" stroke-linejoin="round"/>
<path d="M89.9844 86.4877C90.32 86.4297 90.6556 86.3721 90.9912 86.3141" stroke="#060305" stroke-width="0.6" stroke-miterlimit="10" stroke-linecap="round" stroke-linejoin="round"/>
<path d="M91.4778 87.4077C91.333 87.7097 91.1882 88.0121 91.043 88.3141C91.1738 88.3161 91.3042 88.3177 91.435 88.3197" stroke="#060305" stroke-width="0.6" stroke-miterlimit="10" stroke-linecap="round" stroke-linejoin="round"/>
<path d="M91.7695 89.0093C91.7847 88.8657 91.8911 88.7361 92.0287 88.6929C92.1663 88.6497 92.3279 88.6953 92.4223 88.8045C92.5239 88.6905 92.7475 88.6133 92.8875 88.6737" stroke="#060305" stroke-width="0.6" stroke-miterlimit="10" stroke-linecap="round" stroke-linejoin="round"/>
<path d="M92.957 86.0848C93.1946 86.314 93.4318 86.5432 93.6694 86.7724" stroke="#060305" stroke-width="0.6" stroke-miterlimit="10" stroke-linecap="round" stroke-linejoin="round"/>
<path d="M90.6328 91.2721C91.486 91.6625 92.5268 91.6125 93.3388 91.1425" stroke="#060305" stroke-width="0.6" stroke-miterlimit="10" stroke-linecap="round" stroke-linejoin="round"/>
<path d="M73.1329 97.8908C73.1425 102.803 73.0261 107.798 73.0357 112.71C75.4237 112.22 77.7041 111.908 80.0921 111.418C79.5685 117.924 78.8305 124.256 78.3069 130.763C80.3421 131.97 82.4485 133.148 84.6649 133.976L86.5385 93.2312C82.0697 94.7848 77.6013 96.3376 73.1329 97.8908Z" fill="#6C6CE7"/>
<path d="M82.3362 94.8011C81.405 97.2879 80.4738 99.7747 79.543 102.262C81.2126 102.132 82.8862 102.044 84.5562 101.915C84.9606 103.114 85.473 104.184 85.8778 105.384" stroke="#060305" stroke-width="0.6" stroke-miterlimit="10" stroke-linecap="round" stroke-linejoin="round"/>
<path d="M80.0078 111.533C80.111 110.51 80.2146 109.486 80.3178 108.462" stroke="#060305" stroke-width="0.6" stroke-miterlimit="10" stroke-linecap="round" stroke-linejoin="round"/>
<path d="M75.1726 97.4576C75.0238 102.33 74.8754 107.201 74.7266 112.073" stroke="#060305" stroke-width="0.6" stroke-miterlimit="10" stroke-linecap="round" stroke-linejoin="round"/>
<path d="M126.088 100.542C123.856 95.6164 121.444 90.668 119.212 85.7428C116.173 86.136 112.896 86.4756 109.855 86.8568C107.175 87.1928 104.533 87.8332 101.996 88.762C108.084 100.236 114.127 111.612 120.214 123.086L124.85 116.49C122.11 111.644 119.283 106.747 116.544 101.901C119.767 101.5 122.865 100.942 126.088 100.542Z" fill="#6C6CE7"/>
<path d="M106.348 87.796C108.623 89.3244 110.864 90.8808 113.139 92.4096C111.347 93.562 109.556 94.714 107.764 95.8664C108.092 97.4876 108.325 99.034 108.653 100.655" stroke="#060305" stroke-width="0.6" stroke-miterlimit="10" stroke-linecap="round" stroke-linejoin="round"/>
<path d="M114.746 98.736C115.413 99.8884 116.08 101.041 116.746 102.193" stroke="#060305" stroke-width="0.6" stroke-miterlimit="10" stroke-linecap="round" stroke-linejoin="round"/>
<path d="M117.449 86.2936C119.633 91.0824 121.816 95.8708 124 100.66" stroke="#060305" stroke-width="0.6" stroke-miterlimit="10" stroke-linecap="round" stroke-linejoin="round"/>
<path d="M98.8227 34.6848C98.6963 33.8688 98.6579 33.0272 98.7423 32.1676C99.2839 26.6536 104.193 22.6224 109.707 23.164C115.221 23.7056 119.252 28.6148 118.71 34.1288C118.626 34.9884 118.424 35.8064 118.141 36.582L135.308 38.268C135.463 37.4564 135.588 36.6328 135.671 35.7944C137.132 20.9132 126.253 7.66525 111.373 6.20365C96.4915 4.74205 83.2435 15.6204 81.7819 30.5016C81.6995 31.34 81.6619 32.172 81.6562 32.9984L98.8227 34.6848Z" fill="#F74C32"/>
<path d="M88.4258 18.0929C93.459 11.3001 102.143 7.39329 110.565 8.13369" stroke="white" stroke-width="0.6" stroke-miterlimit="10" stroke-linecap="round" stroke-linejoin="round"/>
<path d="M53.3358 87.1516C62.0033 85.105 67.3705 76.4195 65.3239 67.752C63.2772 59.0846 54.5918 53.7173 45.9243 55.764C37.2568 57.8106 31.8896 66.4961 33.9362 75.1636C35.9829 83.831 44.6683 89.1983 53.3358 87.1516Z" fill="#FEB4B4"/>
<path d="M36.207 66.072C38.0858 61.3748 42.5786 57.8252 47.583 57.0852" stroke="white" stroke-width="0.6" stroke-miterlimit="10" stroke-linecap="round" stroke-linejoin="round"/>
<path d="M74.7771 30.3593C79.7777 30.3593 83.8315 26.3055 83.8315 21.3049C83.8315 16.3043 79.7777 12.2505 74.7771 12.2505C69.7765 12.2505 65.7227 16.3043 65.7227 21.3049C65.7227 26.3055 69.7765 30.3593 74.7771 30.3593Z" fill="#6C6CE7"/>
<path d="M67.4805 19.2121C67.9045 17.5393 68.9057 16.0185 70.2749 14.9681C71.6441 13.9177 73.3725 13.3445 75.0981 13.3685" stroke="white" stroke-width="0.6" stroke-miterlimit="10" stroke-linecap="round" stroke-linejoin="round"/>
<path d="M164.276 41.5876H130.324V59.5404H164.276V41.5876Z" fill="#FDD34F"/>
<path d="M131.695 43.3592C138.932 43.2024 146.169 43.0452 153.405 42.8884" stroke="white" stroke-width="0.6" stroke-miterlimit="10" stroke-linecap="round" stroke-linejoin="round"/>
<path d="M35.5029 57.9629L156.216 37.7697L31.9609 25.7625L35.5029 57.9629Z" fill="#E28492"/>
<path d="M33.832 27.5833C43.0044 28.3737 52.1772 29.1637 61.3496 29.9541" stroke="white" stroke-width="0.6" stroke-miterlimit="10" stroke-linecap="round" stroke-linejoin="round"/>
<path d="M127.131 61.4656C127.131 60.8892 126.664 60.4216 126.087 60.4216C125.511 60.4216 125.043 60.8888 125.043 61.4656C125.043 62.042 125.51 62.5096 126.087 62.5096C126.664 62.5096 127.131 62.042 127.131 61.4656Z" fill="#F74C32"/>
<path d="M85.4854 147.012C86.062 147.012 86.5294 146.545 86.5294 145.968C86.5294 145.391 86.062 144.924 85.4854 144.924C84.9088 144.924 84.4414 145.391 84.4414 145.968C84.4414 146.545 84.9088 147.012 85.4854 147.012Z" stroke="#060305" stroke-width="0.6" stroke-miterlimit="10" stroke-linecap="round" stroke-linejoin="round"/>
<path d="M136.229 105.002C136.229 104.425 135.761 103.958 135.185 103.958C134.608 103.958 134.141 104.425 134.141 105.002C134.141 105.578 134.608 106.046 135.185 106.046C135.761 106.046 136.229 105.578 136.229 105.002Z" stroke="#060305" stroke-width="0.6" stroke-miterlimit="10" stroke-linecap="round" stroke-linejoin="round"/>
<path d="M77.212 80.6169C77.7886 80.6169 78.256 80.1495 78.256 79.5729C78.256 78.9963 77.7886 78.5289 77.212 78.5289C76.6354 78.5289 76.168 78.9963 76.168 79.5729C76.168 80.1495 76.6354 80.6169 77.212 80.6169Z" fill="#FDD34F"/>
<path d="M115.015 68.7565C115.246 68.7565 115.433 68.5695 115.433 68.3389C115.433 68.1082 115.246 67.9213 115.015 67.9213C114.785 67.9213 114.598 68.1082 114.598 68.3389C114.598 68.5695 114.785 68.7565 115.015 68.7565Z" fill="#6C6CE7"/>
<path d="M152.492 116.043C152.722 116.043 152.909 115.856 152.909 115.626C152.909 115.395 152.722 115.208 152.492 115.208C152.261 115.208 152.074 115.395 152.074 115.626C152.074 115.856 152.261 116.043 152.492 116.043Z" fill="#6C6CE7"/>
<path d="M68.5579 126.519C68.5579 126.288 68.3711 126.101 68.1403 126.101C67.9095 126.101 67.7227 126.288 67.7227 126.519C67.7227 126.75 67.9095 126.937 68.1403 126.937C68.3707 126.937 68.5579 126.75 68.5579 126.519Z" fill="#6C6CE7"/>
<path d="M35.4488 126.519C35.6795 126.519 35.8664 126.332 35.8664 126.101C35.8664 125.871 35.6795 125.684 35.4488 125.684C35.2182 125.684 35.0312 125.871 35.0312 126.101C35.0312 126.332 35.2182 126.519 35.4488 126.519Z" fill="#6C6CE7"/>
<path d="M28.8235 102.397C28.8235 102.166 28.6367 101.979 28.4059 101.979C28.1751 101.979 27.9883 102.166 27.9883 102.397C27.9883 102.628 28.1751 102.814 28.4059 102.814C28.6367 102.814 28.8235 102.627 28.8235 102.397Z" fill="#FDD34F"/>
<path d="M142.019 94.4805C142.25 94.4805 142.437 94.2935 142.437 94.0629C142.437 93.8322 142.25 93.6453 142.019 93.6453C141.789 93.6453 141.602 93.8322 141.602 94.0629C141.602 94.2935 141.789 94.4805 142.019 94.4805Z" fill="#F74C32"/>
<path d="M77.2379 63.4277C77.4685 63.4277 77.6555 63.2408 77.6555 63.0101C77.6555 62.7795 77.4685 62.5925 77.2379 62.5925C77.0073 62.5925 76.8203 62.7795 76.8203 63.0101C76.8203 63.2408 77.0073 63.4277 77.2379 63.4277Z" fill="#6C6CE7"/>
<path d="M27.9875 65.7248C27.9875 65.494 27.8007 65.3073 27.5699 65.3073C27.3395 65.3073 27.1523 65.494 27.1523 65.7248C27.1523 65.9552 27.3391 66.1424 27.5699 66.1424C27.8007 66.1424 27.9875 65.9552 27.9875 65.7248Z" fill="#F74C32"/>
<path d="M99.8171 65.7249L98.0391 68.8037H101.595L99.8171 65.7249Z" fill="#6C6CE7"/>
<path d="M39.5784 102.669L41.3564 99.5901H37.8008L39.5784 102.669Z" fill="#F74C32"/>
<path d="M109.362 56.4629L106.496 59.3289" stroke="#060305" stroke-width="0.6" stroke-miterlimit="10" stroke-linecap="round" stroke-linejoin="round"/>
<path d="M106.496 56.4629L109.362 59.3289" stroke="#060305" stroke-width="0.6" stroke-miterlimit="10" stroke-linecap="round" stroke-linejoin="round"/>
<path d="M47.5804 106.636L44.7148 109.502" stroke="#060305" stroke-width="0.6" stroke-miterlimit="10" stroke-linecap="round" stroke-linejoin="round"/>
<path d="M44.7148 106.636L47.5804 109.502" stroke="#060305" stroke-width="0.6" stroke-miterlimit="10" stroke-linecap="round" stroke-linejoin="round"/>
<path d="M163.026 102.981L160.16 105.847" stroke="#060305" stroke-width="0.6" stroke-miterlimit="10" stroke-linecap="round" stroke-linejoin="round"/>
<path d="M160.16 102.981L163.026 105.847" stroke="#060305" stroke-width="0.6" stroke-miterlimit="10" stroke-linecap="round" stroke-linejoin="round"/>
<path d="M26.0301 54.5641L23.1641 57.4301" stroke="#060305" stroke-width="0.6" stroke-miterlimit="10" stroke-linecap="round" stroke-linejoin="round"/>
<path d="M23.1641 54.5641L26.0301 57.4301" stroke="#060305" stroke-width="0.6" stroke-miterlimit="10" stroke-linecap="round" stroke-linejoin="round"/>
</svg>
