<svg width="30" height="30" viewBox="0 0 30 30" fill="none" xmlns="http://www.w3.org/2000/svg">
<path d="M20.3224 14.249L28.3307 6.94066C28.4222 6.85708 28.494 6.75413 28.5407 6.63932C28.5874 6.5245 28.6079 6.40071 28.6007 6.27697C28.5936 6.15323 28.5588 6.03264 28.4992 5.92401C28.4395 5.81537 28.3563 5.72142 28.2557 5.64899L26.389 4.31566C25.8637 3.94447 25.2321 3.75359 24.5891 3.77162C23.946 3.78965 23.3262 4.01562 22.8224 4.41566L13.5057 11.849L10.789 9.74899C11.1519 8.67791 11.1022 7.50998 10.6495 6.47366C10.1968 5.43734 9.37375 4.60718 8.34137 4.14558C7.30899 3.68397 6.14153 3.62413 5.06736 3.97776C3.99319 4.33139 3.08959 5.07304 2.53332 6.05764C1.97705 7.04225 1.80812 8.19897 2.05958 9.30154C2.31103 10.4041 2.96479 11.3732 3.89296 12.0193C4.82113 12.6653 5.95695 12.9418 7.07822 12.7948C8.19949 12.6477 9.22556 12.0876 9.95571 11.224L12.139 12.8907L8.60571 15.7657C7.6045 15.2269 6.4383 15.0809 5.3352 15.3564C4.23209 15.6319 3.27143 16.309 2.64108 17.2552C2.01073 18.2015 1.75604 19.3489 1.92682 20.4729C2.0976 21.597 2.68156 22.617 3.56449 23.3333C4.44743 24.0497 5.56584 24.4109 6.70099 24.3463C7.83613 24.2818 8.90637 23.7961 9.7024 22.9842C10.4984 22.1724 10.963 21.0928 11.0052 19.9566C11.0474 18.8204 10.6643 17.7093 9.93072 16.8407L23.8557 5.71566C24.0774 5.54051 24.3497 5.4418 24.6321 5.43429C24.9145 5.42678 25.1917 5.51087 25.4224 5.67399L26.4474 6.40733L17.8557 14.2573L26.4474 22.0907L25.4224 22.824C25.1917 22.9871 24.9145 23.0712 24.6321 23.0637C24.3497 23.0562 24.0774 22.9575 23.8557 22.7823L15.6807 16.2407L14.439 17.374L22.8224 24.0407C23.3269 24.4427 23.9484 24.6698 24.5932 24.6878C25.238 24.7059 25.8712 24.5138 26.3974 24.1407L28.264 22.8073C28.3646 22.7349 28.4478 22.6409 28.5075 22.5323C28.5672 22.4237 28.6019 22.3031 28.6091 22.1793C28.6163 22.0556 28.5957 21.9318 28.549 21.817C28.5023 21.7022 28.4306 21.5992 28.339 21.5157L20.3224 14.249ZM6.48071 11.2157C5.91009 11.2173 5.35181 11.0496 4.87656 10.7338C4.4013 10.418 4.03044 9.96823 3.81093 9.44152C3.59142 8.9148 3.53313 8.3348 3.64344 7.77494C3.75375 7.21508 4.0277 6.70054 4.43061 6.29647C4.83352 5.89239 5.34726 5.61695 5.9068 5.50502C6.46634 5.39309 7.04651 5.4497 7.57385 5.66768C8.1012 5.88567 8.55201 6.25523 8.8692 6.72957C9.1864 7.20391 9.35571 7.7617 9.35571 8.33232C9.35572 9.09559 9.05308 9.82772 8.51415 10.3682C7.97522 10.9087 7.24398 11.2135 6.48071 11.2157V11.2157ZM6.48071 22.649C5.91009 22.6506 5.35181 22.4829 4.87656 22.1671C4.4013 21.8513 4.03044 21.4016 3.81093 20.8748C3.59142 20.3481 3.53313 19.7681 3.64344 19.2083C3.75375 18.6484 4.0277 18.1339 4.43061 17.7298C4.83352 17.3257 5.34726 17.0503 5.9068 16.9384C6.46634 16.8264 7.04651 16.883 7.57385 17.101C8.1012 17.319 8.55201 17.6886 8.8692 18.1629C9.1864 18.6372 9.35571 19.195 9.35571 19.7657C9.35572 20.5289 9.05308 21.2611 8.51415 21.8015C7.97522 22.342 7.24398 22.6468 6.48071 22.649V22.649Z" fill="white"/>
</svg>
