<svg width="300" height="325" viewBox="0 0 300 325" fill="none" xmlns="http://www.w3.org/2000/svg">
<rect width="300" height="325" rx="24" fill="white"/>
<circle cx="36" cy="44" r="20" fill="#F35E0E"/>
<path d="M38.7557 33.6364L38.2386 47.6364H33.7045L33.1875 33.6364H38.7557ZM35.9716 54.3182C35.2027 54.3182 34.5431 54.0497 33.9929 53.5128C33.4493 52.9692 33.1809 52.3097 33.1875 51.5341C33.1809 50.7784 33.4493 50.1321 33.9929 49.5952C34.5431 49.0582 35.2027 48.7898 35.9716 48.7898C36.7008 48.7898 37.3438 49.0582 37.9006 49.5952C38.464 50.1321 38.7491 50.7784 38.7557 51.5341C38.7491 52.0511 38.6132 52.5218 38.348 52.946C38.0895 53.3636 37.7514 53.6984 37.3338 53.9503C36.9162 54.1955 36.4621 54.3182 35.9716 54.3182Z" fill="white"/>
<path d="M72.625 30.4205C72.5644 29.8826 72.3144 29.4659 71.875 29.1705C71.4356 28.8712 70.8826 28.7216 70.2159 28.7216C69.7386 28.7216 69.3258 28.7973 68.9773 28.9489C68.6288 29.0966 68.358 29.3011 68.1648 29.5625C67.9754 29.8201 67.8807 30.1136 67.8807 30.4432C67.8807 30.7197 67.9451 30.9583 68.0739 31.1591C68.2064 31.3598 68.3788 31.5284 68.5909 31.6648C68.8068 31.7973 69.0379 31.9091 69.2841 32C69.5303 32.0871 69.767 32.1591 69.9943 32.2159L71.1307 32.5114C71.5019 32.6023 71.8826 32.7254 72.2727 32.8807C72.6629 33.036 73.0246 33.2405 73.358 33.4943C73.6913 33.7481 73.9602 34.0625 74.1648 34.4375C74.3731 34.8125 74.4773 35.2614 74.4773 35.7841C74.4773 36.4432 74.3068 37.0284 73.9659 37.5398C73.6288 38.0511 73.1383 38.4545 72.4943 38.75C71.8542 39.0455 71.0795 39.1932 70.1705 39.1932C69.2992 39.1932 68.5455 39.0549 67.9091 38.7784C67.2727 38.5019 66.7746 38.1098 66.4148 37.6023C66.0549 37.0909 65.8561 36.4848 65.8182 35.7841H67.5795C67.6136 36.2045 67.75 36.5549 67.9886 36.8352C68.2311 37.1117 68.5398 37.3182 68.9148 37.4545C69.2936 37.5871 69.7083 37.6534 70.1591 37.6534C70.6553 37.6534 71.0966 37.5758 71.483 37.4205C71.8731 37.2614 72.1799 37.0417 72.4034 36.7614C72.6269 36.4773 72.7386 36.1458 72.7386 35.767C72.7386 35.4223 72.6402 35.1402 72.4432 34.9205C72.25 34.7008 71.9867 34.5189 71.6534 34.375C71.3239 34.2311 70.9508 34.1042 70.5341 33.9943L69.1591 33.6193C68.2273 33.3655 67.4886 32.9924 66.9432 32.5C66.4015 32.0076 66.1307 31.3561 66.1307 30.5455C66.1307 29.875 66.3125 29.2898 66.6761 28.7898C67.0398 28.2898 67.5322 27.9015 68.1534 27.625C68.7746 27.3447 69.4754 27.2045 70.2557 27.2045C71.0436 27.2045 71.7386 27.3428 72.3409 27.6193C72.947 27.8958 73.4242 28.2765 73.7727 28.7614C74.1212 29.2424 74.303 29.7955 74.3182 30.4205H72.625ZM80.2003 39.1761C79.3404 39.1761 78.5999 38.9924 77.9787 38.625C77.3613 38.2538 76.884 37.733 76.5469 37.0625C76.2135 36.3883 76.0469 35.5985 76.0469 34.6932C76.0469 33.7992 76.2135 33.0114 76.5469 32.3295C76.884 31.6477 77.3537 31.1155 77.956 30.733C78.562 30.3504 79.2704 30.1591 80.081 30.1591C80.5734 30.1591 81.0507 30.2405 81.5128 30.4034C81.9749 30.5663 82.3897 30.822 82.7571 31.1705C83.1245 31.5189 83.4143 31.9716 83.6264 32.5284C83.8385 33.0814 83.9446 33.7538 83.9446 34.5455V35.1477H77.0071V33.875H82.2798C82.2798 33.428 82.1889 33.0322 82.0071 32.6875C81.8253 32.339 81.5696 32.0644 81.2401 31.8636C80.9143 31.6629 80.5317 31.5625 80.0923 31.5625C79.6151 31.5625 79.1984 31.6799 78.8423 31.9148C78.4901 32.1458 78.2173 32.4489 78.0241 32.8239C77.8348 33.1951 77.7401 33.5985 77.7401 34.0341V35.0284C77.7401 35.6117 77.8423 36.108 78.0469 36.517C78.2552 36.9261 78.545 37.2386 78.9162 37.4545C79.2874 37.6667 79.7211 37.7727 80.2173 37.7727C80.5393 37.7727 80.8329 37.7273 81.098 37.6364C81.3632 37.5417 81.5923 37.4015 81.7855 37.2159C81.9787 37.0303 82.1264 36.8011 82.2287 36.5284L83.8366 36.8182C83.7079 37.2917 83.4768 37.7064 83.1435 38.0625C82.8139 38.4148 82.3991 38.6894 81.8991 38.8864C81.4029 39.0795 80.8366 39.1761 80.2003 39.1761ZM87.5284 33.8182V39H85.8295V30.2727H87.4602V31.6932H87.5682C87.7689 31.2311 88.0833 30.8598 88.5114 30.5795C88.9432 30.2992 89.4867 30.1591 90.142 30.1591C90.7367 30.1591 91.2576 30.2841 91.7045 30.5341C92.1515 30.7803 92.4981 31.1477 92.7443 31.6364C92.9905 32.125 93.1136 32.7292 93.1136 33.4489V39H91.4148V33.6534C91.4148 33.0208 91.25 32.5265 90.9205 32.1705C90.5909 31.8106 90.1383 31.6307 89.5625 31.6307C89.1686 31.6307 88.8182 31.7159 88.5114 31.8864C88.2083 32.0568 87.9678 32.3068 87.7898 32.6364C87.6155 32.9621 87.5284 33.3561 87.5284 33.8182ZM98.6591 39.1705C97.9545 39.1705 97.3258 38.9905 96.7727 38.6307C96.2235 38.267 95.7917 37.75 95.4773 37.0795C95.1667 36.4053 95.0114 35.5966 95.0114 34.6534C95.0114 33.7102 95.1686 32.9034 95.483 32.233C95.8011 31.5625 96.2367 31.0492 96.7898 30.6932C97.3428 30.3371 97.9697 30.1591 98.6705 30.1591C99.2121 30.1591 99.6477 30.25 99.9773 30.4318C100.311 30.6098 100.568 30.8182 100.75 31.0568C100.936 31.2955 101.08 31.5057 101.182 31.6875H101.284V27.3636H102.983V39H101.324V37.642H101.182C101.08 37.8277 100.932 38.0398 100.739 38.2784C100.549 38.517 100.288 38.7254 99.9545 38.9034C99.6212 39.0814 99.1894 39.1705 98.6591 39.1705ZM99.0341 37.7216C99.5227 37.7216 99.9356 37.5928 100.273 37.3352C100.614 37.0739 100.871 36.7121 101.045 36.25C101.223 35.7879 101.312 35.25 101.312 34.6364C101.312 34.0303 101.225 33.5 101.051 33.0455C100.877 32.5909 100.621 32.2367 100.284 31.983C99.947 31.7292 99.5303 31.6023 99.0341 31.6023C98.5227 31.6023 98.0966 31.7348 97.7557 32C97.4148 32.2652 97.1572 32.6269 96.983 33.0852C96.8125 33.5436 96.7273 34.0606 96.7273 34.6364C96.7273 35.2197 96.8144 35.7443 96.9886 36.2102C97.1629 36.6761 97.4205 37.0455 97.7614 37.3182C98.1061 37.5871 98.5303 37.7216 99.0341 37.7216ZM105.408 39V30.2727H107.107V39H105.408ZM106.266 28.9261C105.97 28.9261 105.716 28.8277 105.504 28.6307C105.296 28.4299 105.192 28.1913 105.192 27.9148C105.192 27.6345 105.296 27.3958 105.504 27.1989C105.716 26.9981 105.97 26.8977 106.266 26.8977C106.561 26.8977 106.813 26.9981 107.021 27.1989C107.233 27.3958 107.339 27.6345 107.339 27.9148C107.339 28.1913 107.233 28.4299 107.021 28.6307C106.813 28.8277 106.561 28.9261 106.266 28.9261ZM111.091 33.8182V39H109.392V30.2727H111.023V31.6932H111.131C111.331 31.2311 111.646 30.8598 112.074 30.5795C112.506 30.2992 113.049 30.1591 113.705 30.1591C114.299 30.1591 114.82 30.2841 115.267 30.5341C115.714 30.7803 116.061 31.1477 116.307 31.6364C116.553 32.125 116.676 32.7292 116.676 33.4489V39H114.977V33.6534C114.977 33.0208 114.813 32.5265 114.483 32.1705C114.153 31.8106 113.701 31.6307 113.125 31.6307C112.731 31.6307 112.381 31.7159 112.074 31.8864C111.771 32.0568 111.53 32.3068 111.352 32.6364C111.178 32.9621 111.091 33.3561 111.091 33.8182ZM122.614 42.4545C121.92 42.4545 121.324 42.3636 120.824 42.1818C120.328 42 119.922 41.7595 119.608 41.4602C119.294 41.161 119.059 40.8333 118.903 40.4773L120.364 39.875C120.466 40.0417 120.602 40.2178 120.773 40.4034C120.947 40.5928 121.182 40.7538 121.477 40.8864C121.777 41.0189 122.161 41.0852 122.631 41.0852C123.275 41.0852 123.807 40.928 124.227 40.6136C124.648 40.303 124.858 39.8068 124.858 39.125V37.4091H124.75C124.648 37.5947 124.5 37.8011 124.307 38.0284C124.117 38.2557 123.856 38.4527 123.523 38.6193C123.189 38.786 122.756 38.8693 122.222 38.8693C121.532 38.8693 120.911 38.7083 120.358 38.3864C119.809 38.0606 119.373 37.5814 119.051 36.9489C118.733 36.3125 118.574 35.5303 118.574 34.6023C118.574 33.6742 118.731 32.8788 119.045 32.2159C119.364 31.553 119.799 31.0455 120.352 30.6932C120.905 30.3371 121.532 30.1591 122.233 30.1591C122.775 30.1591 123.212 30.25 123.545 30.4318C123.879 30.6098 124.138 30.8182 124.324 31.0568C124.513 31.2955 124.659 31.5057 124.761 31.6875H124.886V30.2727H126.551V39.1932C126.551 39.9432 126.377 40.5587 126.028 41.0398C125.68 41.5208 125.208 41.8769 124.614 42.108C124.023 42.339 123.356 42.4545 122.614 42.4545ZM122.597 37.4602C123.085 37.4602 123.498 37.3466 123.835 37.1193C124.176 36.8883 124.434 36.5587 124.608 36.1307C124.786 35.6989 124.875 35.1818 124.875 34.5795C124.875 33.9924 124.788 33.4754 124.614 33.0284C124.439 32.5814 124.184 32.233 123.847 31.983C123.509 31.7292 123.093 31.6023 122.597 31.6023C122.085 31.6023 121.659 31.7348 121.318 32C120.977 32.2614 120.72 32.6174 120.545 33.0682C120.375 33.5189 120.29 34.0227 120.29 34.5795C120.29 35.1515 120.377 35.6534 120.551 36.0852C120.725 36.517 120.983 36.8542 121.324 37.0966C121.669 37.339 122.093 37.4602 122.597 37.4602ZM133.064 39V30.2727H134.706V31.6591H134.797C134.956 31.1894 135.236 30.8201 135.638 30.5511C136.043 30.2784 136.501 30.142 137.013 30.142C137.119 30.142 137.244 30.1458 137.388 30.1534C137.536 30.161 137.651 30.1705 137.734 30.1818V31.8068C137.666 31.7879 137.545 31.767 137.371 31.7443C137.196 31.7178 137.022 31.7045 136.848 31.7045C136.446 31.7045 136.089 31.7898 135.774 31.9602C135.464 32.1269 135.217 32.3598 135.036 32.6591C134.854 32.9545 134.763 33.2917 134.763 33.6705V39H133.064ZM142.653 39.1761C141.794 39.1761 141.053 38.9924 140.432 38.625C139.814 38.2538 139.337 37.733 139 37.0625C138.667 36.3883 138.5 35.5985 138.5 34.6932C138.5 33.7992 138.667 33.0114 139 32.3295C139.337 31.6477 139.807 31.1155 140.409 30.733C141.015 30.3504 141.723 30.1591 142.534 30.1591C143.027 30.1591 143.504 30.2405 143.966 30.4034C144.428 30.5663 144.843 30.822 145.21 31.1705C145.578 31.5189 145.867 31.9716 146.08 32.5284C146.292 33.0814 146.398 33.7538 146.398 34.5455V35.1477H139.46V33.875H144.733C144.733 33.428 144.642 33.0322 144.46 32.6875C144.278 32.339 144.023 32.0644 143.693 31.8636C143.367 31.6629 142.985 31.5625 142.545 31.5625C142.068 31.5625 141.652 31.6799 141.295 31.9148C140.943 32.1458 140.67 32.4489 140.477 32.8239C140.288 33.1951 140.193 33.5985 140.193 34.0341V35.0284C140.193 35.6117 140.295 36.108 140.5 36.517C140.708 36.9261 140.998 37.2386 141.369 37.4545C141.741 37.6667 142.174 37.7727 142.67 37.7727C142.992 37.7727 143.286 37.7273 143.551 37.6364C143.816 37.5417 144.045 37.4015 144.239 37.2159C144.432 37.0303 144.58 36.8011 144.682 36.5284L146.29 36.8182C146.161 37.2917 145.93 37.7064 145.597 38.0625C145.267 38.4148 144.852 38.6894 144.352 38.8864C143.856 39.0795 143.29 39.1761 142.653 39.1761ZM148.283 39V30.2727H149.913V31.6932H150.021C150.203 31.2121 150.5 30.8371 150.913 30.5682C151.326 30.2955 151.821 30.1591 152.396 30.1591C152.98 30.1591 153.468 30.2955 153.862 30.5682C154.26 30.8409 154.554 31.2159 154.743 31.6932H154.834C155.042 31.2273 155.374 30.8561 155.828 30.5795C156.283 30.2992 156.824 30.1591 157.453 30.1591C158.245 30.1591 158.891 30.4072 159.391 30.9034C159.894 31.3996 160.146 32.1477 160.146 33.1477V39H158.447V33.3068C158.447 32.7159 158.286 32.2879 157.964 32.0227C157.643 31.7576 157.258 31.625 156.811 31.625C156.258 31.625 155.828 31.7955 155.521 32.1364C155.214 32.4735 155.061 32.9072 155.061 33.4375V39H153.368V33.1989C153.368 32.7254 153.22 32.3447 152.925 32.0568C152.629 31.7689 152.245 31.625 151.771 31.625C151.449 31.625 151.152 31.7102 150.879 31.8807C150.61 32.0473 150.393 32.2803 150.226 32.5795C150.063 32.8788 149.982 33.2254 149.982 33.6193V39H148.283ZM162.423 39V30.2727H164.122V39H162.423ZM163.281 28.9261C162.986 28.9261 162.732 28.8277 162.52 28.6307C162.312 28.4299 162.207 28.1913 162.207 27.9148C162.207 27.6345 162.312 27.3958 162.52 27.1989C162.732 26.9981 162.986 26.8977 163.281 26.8977C163.577 26.8977 163.829 26.9981 164.037 27.1989C164.249 27.3958 164.355 27.6345 164.355 27.9148C164.355 28.1913 164.249 28.4299 164.037 28.6307C163.829 28.8277 163.577 28.9261 163.281 28.9261ZM168.107 33.8182V39H166.408V30.2727H168.038V31.6932H168.146C168.347 31.2311 168.661 30.8598 169.089 30.5795C169.521 30.2992 170.065 30.1591 170.72 30.1591C171.315 30.1591 171.836 30.2841 172.283 30.5341C172.73 30.7803 173.076 31.1477 173.322 31.6364C173.569 32.125 173.692 32.7292 173.692 33.4489V39H171.993V33.6534C171.993 33.0208 171.828 32.5265 171.499 32.1705C171.169 31.8106 170.716 31.6307 170.141 31.6307C169.747 31.6307 169.396 31.7159 169.089 31.8864C168.786 32.0568 168.546 32.3068 168.368 32.6364C168.194 32.9621 168.107 33.3561 168.107 33.8182ZM179.237 39.1705C178.533 39.1705 177.904 38.9905 177.351 38.6307C176.802 38.267 176.37 37.75 176.055 37.0795C175.745 36.4053 175.589 35.5966 175.589 34.6534C175.589 33.7102 175.747 32.9034 176.061 32.233C176.379 31.5625 176.815 31.0492 177.368 30.6932C177.921 30.3371 178.548 30.1591 179.249 30.1591C179.79 30.1591 180.226 30.25 180.555 30.4318C180.889 30.6098 181.146 30.8182 181.328 31.0568C181.514 31.2955 181.658 31.5057 181.76 31.6875H181.862V27.3636H183.561V39H181.902V37.642H181.76C181.658 37.8277 181.51 38.0398 181.317 38.2784C181.127 38.517 180.866 38.7254 180.533 38.9034C180.199 39.0814 179.768 39.1705 179.237 39.1705ZM179.612 37.7216C180.101 37.7216 180.514 37.5928 180.851 37.3352C181.192 37.0739 181.449 36.7121 181.624 36.25C181.802 35.7879 181.891 35.25 181.891 34.6364C181.891 34.0303 181.804 33.5 181.629 33.0455C181.455 32.5909 181.199 32.2367 180.862 31.983C180.525 31.7292 180.108 31.6023 179.612 31.6023C179.101 31.6023 178.675 31.7348 178.334 32C177.993 32.2652 177.735 32.6269 177.561 33.0852C177.391 33.5436 177.305 34.0606 177.305 34.6364C177.305 35.2197 177.393 35.7443 177.567 36.2102C177.741 36.6761 177.999 37.0455 178.339 37.3182C178.684 37.5871 179.108 37.7216 179.612 37.7216ZM189.747 39.1761C188.887 39.1761 188.147 38.9924 187.526 38.625C186.908 38.2538 186.431 37.733 186.094 37.0625C185.76 36.3883 185.594 35.5985 185.594 34.6932C185.594 33.7992 185.76 33.0114 186.094 32.3295C186.431 31.6477 186.901 31.1155 187.503 30.733C188.109 30.3504 188.817 30.1591 189.628 30.1591C190.12 30.1591 190.598 30.2405 191.06 30.4034C191.522 30.5663 191.937 30.822 192.304 31.1705C192.671 31.5189 192.961 31.9716 193.173 32.5284C193.385 33.0814 193.491 33.7538 193.491 34.5455V35.1477H186.554V33.875H191.827C191.827 33.428 191.736 33.0322 191.554 32.6875C191.372 32.339 191.116 32.0644 190.787 31.8636C190.461 31.6629 190.079 31.5625 189.639 31.5625C189.162 31.5625 188.745 31.6799 188.389 31.9148C188.037 32.1458 187.764 32.4489 187.571 32.8239C187.382 33.1951 187.287 33.5985 187.287 34.0341V35.0284C187.287 35.6117 187.389 36.108 187.594 36.517C187.802 36.9261 188.092 37.2386 188.463 37.4545C188.834 37.6667 189.268 37.7727 189.764 37.7727C190.086 37.7727 190.38 37.7273 190.645 37.6364C190.91 37.5417 191.139 37.4015 191.332 37.2159C191.526 37.0303 191.673 36.8011 191.776 36.5284L193.384 36.8182C193.255 37.2917 193.024 37.7064 192.69 38.0625C192.361 38.4148 191.946 38.6894 191.446 38.8864C190.95 39.0795 190.384 39.1761 189.747 39.1761ZM195.376 39V30.2727H197.018V31.6591H197.109C197.268 31.1894 197.549 30.8201 197.95 30.5511C198.356 30.2784 198.814 30.142 199.325 30.142C199.431 30.142 199.556 30.1458 199.7 30.1534C199.848 30.161 199.964 30.1705 200.047 30.1818V31.8068C199.979 31.7879 199.857 31.767 199.683 31.7443C199.509 31.7178 199.335 31.7045 199.161 31.7045C198.759 31.7045 198.401 31.7898 198.087 31.9602C197.776 32.1269 197.53 32.3598 197.348 32.6591C197.166 32.9545 197.075 33.2917 197.075 33.6705V39H195.376ZM209.825 30.2727V31.6364H205.058V30.2727H209.825ZM206.337 28.1818H208.036V36.4375C208.036 36.767 208.085 37.0152 208.183 37.1818C208.282 37.3447 208.409 37.4564 208.564 37.517C208.723 37.5739 208.895 37.6023 209.081 37.6023C209.217 37.6023 209.337 37.5928 209.439 37.5739C209.541 37.5549 209.621 37.5398 209.678 37.5284L209.984 38.9318C209.886 38.9697 209.746 39.0076 209.564 39.0455C209.382 39.0871 209.155 39.1098 208.882 39.1136C208.435 39.1212 208.018 39.0417 207.632 38.875C207.246 38.7083 206.933 38.4508 206.695 38.1023C206.456 37.7538 206.337 37.3163 206.337 36.7898V28.1818ZM215.287 39.1761C214.469 39.1761 213.755 38.9886 213.145 38.6136C212.535 38.2386 212.062 37.714 211.724 37.0398C211.387 36.3655 211.219 35.5777 211.219 34.6761C211.219 33.7708 211.387 32.9792 211.724 32.3011C212.062 31.6231 212.535 31.0966 213.145 30.7216C213.755 30.3466 214.469 30.1591 215.287 30.1591C216.105 30.1591 216.819 30.3466 217.429 30.7216C218.039 31.0966 218.512 31.6231 218.849 32.3011C219.187 32.9792 219.355 33.7708 219.355 34.6761C219.355 35.5777 219.187 36.3655 218.849 37.0398C218.512 37.714 218.039 38.2386 217.429 38.6136C216.819 38.9886 216.105 39.1761 215.287 39.1761ZM215.293 37.75C215.823 37.75 216.262 37.6098 216.611 37.3295C216.959 37.0492 217.217 36.6761 217.384 36.2102C217.554 35.7443 217.639 35.2311 217.639 34.6705C217.639 34.1136 217.554 33.6023 217.384 33.1364C217.217 32.6667 216.959 32.2898 216.611 32.0057C216.262 31.7216 215.823 31.5795 215.293 31.5795C214.759 31.5795 214.315 31.7216 213.963 32.0057C213.615 32.2898 213.355 32.6667 213.185 33.1364C213.018 33.6023 212.935 34.1136 212.935 34.6705C212.935 35.2311 213.018 35.7443 213.185 36.2102C213.355 36.6761 213.615 37.0492 213.963 37.3295C214.315 37.6098 214.759 37.75 215.293 37.75Z" fill="black"/>
<path d="M70.7386 46.3636H72.8295V54.5455C72.8258 55.2955 72.6667 55.9413 72.3523 56.483C72.0379 57.0208 71.5985 57.4356 71.0341 57.7273C70.4735 58.0152 69.8201 58.1591 69.0739 58.1591C68.392 58.1591 67.7784 58.0379 67.233 57.7955C66.6913 57.5492 66.2614 57.1856 65.9432 56.7045C65.625 56.2235 65.4659 55.625 65.4659 54.9091H67.5625C67.5663 55.2235 67.6345 55.4943 67.767 55.7216C67.9034 55.9489 68.0909 56.1231 68.3295 56.2443C68.5682 56.3655 68.8428 56.4261 69.1534 56.4261C69.4905 56.4261 69.7765 56.3561 70.0114 56.2159C70.2462 56.072 70.4242 55.8598 70.5455 55.5795C70.6705 55.2992 70.7348 54.9545 70.7386 54.5455V46.3636ZM77.5369 58.1761C76.9839 58.1761 76.4858 58.0777 76.0426 57.8807C75.6032 57.6799 75.2547 57.3845 74.9972 56.9943C74.7434 56.6042 74.6165 56.1231 74.6165 55.5511C74.6165 55.0587 74.7074 54.6515 74.8892 54.3295C75.071 54.0076 75.3191 53.75 75.6335 53.5568C75.9479 53.3636 76.3021 53.2178 76.696 53.1193C77.0938 53.017 77.5047 52.9432 77.929 52.8977C78.4403 52.8447 78.8551 52.7973 79.1733 52.7557C79.4915 52.7102 79.7225 52.642 79.8665 52.5511C80.0142 52.4564 80.0881 52.3106 80.0881 52.1136V52.0795C80.0881 51.6515 79.9612 51.3201 79.7074 51.0852C79.4536 50.8504 79.0881 50.733 78.6108 50.733C78.107 50.733 77.7074 50.8428 77.4119 51.0625C77.1203 51.2822 76.9233 51.5417 76.821 51.8409L74.9006 51.5682C75.0521 51.0379 75.3021 50.5947 75.6506 50.2386C75.9991 49.8788 76.4252 49.6098 76.929 49.4318C77.4328 49.25 77.9896 49.1591 78.5994 49.1591C79.0199 49.1591 79.4384 49.2083 79.8551 49.3068C80.2718 49.4053 80.6525 49.5682 80.9972 49.7955C81.3419 50.0189 81.6184 50.3239 81.8267 50.7102C82.0388 51.0966 82.1449 51.5795 82.1449 52.1591V58H80.1676V56.8011H80.0994C79.9744 57.0436 79.7983 57.2708 79.571 57.483C79.3475 57.6913 79.0653 57.8598 78.7244 57.9886C78.3873 58.1136 77.9915 58.1761 77.5369 58.1761ZM78.071 56.6648C78.4839 56.6648 78.8419 56.5833 79.1449 56.4205C79.4479 56.2538 79.6809 56.0341 79.8438 55.7614C80.0104 55.4886 80.0938 55.1913 80.0938 54.8693V53.8409C80.0294 53.8939 79.9195 53.9432 79.7642 53.9886C79.6127 54.0341 79.4422 54.0739 79.2528 54.108C79.0634 54.142 78.8759 54.1723 78.6903 54.1989C78.5047 54.2254 78.3438 54.2481 78.2074 54.267C77.9006 54.3087 77.6259 54.3769 77.3835 54.4716C77.1411 54.5663 76.9498 54.6989 76.8097 54.8693C76.6695 55.036 76.5994 55.2519 76.5994 55.517C76.5994 55.8958 76.7377 56.1818 77.0142 56.375C77.2907 56.5682 77.643 56.6648 78.071 56.6648ZM88.0199 58.1705C87.1487 58.1705 86.4006 57.9792 85.7756 57.5966C85.1544 57.214 84.6752 56.6856 84.3381 56.0114C84.0047 55.3333 83.8381 54.553 83.8381 53.6705C83.8381 52.7841 84.0085 52.0019 84.3494 51.3239C84.6903 50.642 85.1714 50.1117 85.7926 49.733C86.4176 49.3504 87.1563 49.1591 88.0085 49.1591C88.7169 49.1591 89.3438 49.2898 89.8892 49.5511C90.4384 49.8087 90.8759 50.1742 91.2017 50.6477C91.5275 51.1174 91.7131 51.6667 91.7585 52.2955H89.7926C89.7131 51.875 89.5237 51.5246 89.2244 51.2443C88.929 50.9602 88.5331 50.8182 88.0369 50.8182C87.6165 50.8182 87.2472 50.9318 86.929 51.1591C86.6108 51.3826 86.3627 51.7045 86.1847 52.125C86.0104 52.5455 85.9233 53.0492 85.9233 53.6364C85.9233 54.2311 86.0104 54.7424 86.1847 55.1705C86.3589 55.5947 86.6032 55.9223 86.9176 56.1534C87.2358 56.3807 87.6089 56.4943 88.0369 56.4943C88.34 56.4943 88.6108 56.4375 88.8494 56.3239C89.0919 56.2064 89.2945 56.0379 89.4574 55.8182C89.6203 55.5985 89.732 55.3314 89.7926 55.017H91.7585C91.7093 55.6345 91.5275 56.1818 91.2131 56.6591C90.8987 57.1326 90.4706 57.5038 89.929 57.7727C89.3873 58.0379 88.7509 58.1705 88.0199 58.1705ZM95.3224 55.2614L95.3168 52.7784H95.6463L98.7827 49.2727H101.186L97.3281 53.5682H96.902L95.3224 55.2614ZM93.4474 58V46.3636H95.5043V58H93.4474ZM98.9247 58L96.0838 54.0284L97.4702 52.5795L101.385 58H98.9247ZM102.557 58V49.2727H104.614V58H102.557ZM103.591 48.0341C103.265 48.0341 102.985 47.9261 102.75 47.7102C102.515 47.4905 102.398 47.2273 102.398 46.9205C102.398 46.6098 102.515 46.3466 102.75 46.1307C102.985 45.911 103.265 45.8011 103.591 45.8011C103.92 45.8011 104.201 45.911 104.432 46.1307C104.667 46.3466 104.784 46.6098 104.784 46.9205C104.784 47.2273 104.667 47.4905 104.432 47.7102C104.201 47.9261 103.92 48.0341 103.591 48.0341ZM110.592 58.1705C109.717 58.1705 108.962 57.9886 108.325 57.625C107.693 57.2576 107.206 56.7386 106.865 56.0682C106.524 55.3939 106.354 54.6004 106.354 53.6875C106.354 52.7898 106.524 52.0019 106.865 51.3239C107.21 50.642 107.691 50.1117 108.308 49.733C108.926 49.3504 109.651 49.1591 110.484 49.1591C111.022 49.1591 111.53 49.2462 112.007 49.4205C112.488 49.5909 112.912 49.8561 113.28 50.2159C113.651 50.5758 113.943 51.0341 114.155 51.5909C114.367 52.1439 114.473 52.803 114.473 53.5682V54.1989H107.32V52.8125H112.501C112.498 52.4186 112.412 52.0682 112.246 51.7614C112.079 51.4508 111.846 51.2064 111.547 51.0284C111.251 50.8504 110.907 50.7614 110.513 50.7614C110.092 50.7614 109.723 50.8636 109.405 51.0682C109.087 51.2689 108.839 51.5341 108.661 51.8636C108.486 52.1894 108.397 52.5473 108.393 52.9375V54.1477C108.393 54.6553 108.486 55.0909 108.672 55.4545C108.857 55.8144 109.117 56.0909 109.45 56.2841C109.784 56.4735 110.174 56.5682 110.621 56.5682C110.92 56.5682 111.191 56.5265 111.433 56.4432C111.676 56.3561 111.886 56.2292 112.064 56.0625C112.242 55.8958 112.376 55.6894 112.467 55.4432L114.388 55.6591C114.267 56.1667 114.036 56.6098 113.695 56.9886C113.357 57.3636 112.926 57.6553 112.399 57.8636C111.873 58.0682 111.27 58.1705 110.592 58.1705ZM126.597 49.5625C126.544 49.0663 126.32 48.6799 125.926 48.4034C125.536 48.1269 125.028 47.9886 124.403 47.9886C123.964 47.9886 123.587 48.0549 123.273 48.1875C122.958 48.3201 122.718 48.5 122.551 48.7273C122.384 48.9545 122.299 49.214 122.295 49.5057C122.295 49.7481 122.35 49.9583 122.46 50.1364C122.574 50.3144 122.727 50.4659 122.92 50.5909C123.114 50.7121 123.328 50.8144 123.562 50.8977C123.797 50.9811 124.034 51.0511 124.273 51.108L125.364 51.3807C125.803 51.483 126.225 51.6212 126.631 51.7955C127.04 51.9697 127.405 52.1894 127.727 52.4545C128.053 52.7197 128.311 53.0398 128.5 53.4148C128.689 53.7898 128.784 54.2292 128.784 54.733C128.784 55.4148 128.61 56.0152 128.261 56.5341C127.913 57.0492 127.409 57.4527 126.75 57.7443C126.095 58.0322 125.301 58.1761 124.369 58.1761C123.464 58.1761 122.678 58.036 122.011 57.7557C121.348 57.4754 120.83 57.0663 120.455 56.5284C120.083 55.9905 119.883 55.3352 119.852 54.5625H121.926C121.956 54.9678 122.081 55.3049 122.301 55.5739C122.521 55.8428 122.807 56.0436 123.159 56.1761C123.515 56.3087 123.913 56.375 124.352 56.375C124.811 56.375 125.212 56.3068 125.557 56.1705C125.905 56.0303 126.178 55.8371 126.375 55.5909C126.572 55.3409 126.672 55.0492 126.676 54.7159C126.672 54.4129 126.583 54.1629 126.409 53.9659C126.235 53.7652 125.991 53.5985 125.676 53.4659C125.366 53.3295 125.002 53.2083 124.585 53.1023L123.261 52.7614C122.303 52.5152 121.545 52.142 120.989 51.642C120.436 51.1383 120.159 50.4697 120.159 49.6364C120.159 48.9508 120.345 48.3504 120.716 47.8352C121.091 47.3201 121.6 46.9205 122.244 46.6364C122.888 46.3485 123.617 46.2045 124.432 46.2045C125.258 46.2045 125.981 46.3485 126.602 46.6364C127.227 46.9205 127.718 47.3163 128.074 47.8239C128.43 48.3277 128.614 48.9072 128.625 49.5625H126.597ZM130.572 58V49.2727H132.538V50.7557H132.641C132.822 50.2557 133.124 49.8655 133.544 49.5852C133.964 49.3011 134.466 49.1591 135.05 49.1591C135.641 49.1591 136.139 49.303 136.544 49.5909C136.953 49.875 137.241 50.2633 137.408 50.7557H137.499C137.692 50.2708 138.018 49.8845 138.476 49.5966C138.938 49.3049 139.485 49.1591 140.118 49.1591C140.921 49.1591 141.576 49.4129 142.084 49.9205C142.591 50.428 142.845 51.1686 142.845 52.142V58H140.783V52.4602C140.783 51.9186 140.639 51.5227 140.351 51.2727C140.063 51.0189 139.711 50.892 139.294 50.892C138.798 50.892 138.41 51.0473 138.129 51.358C137.853 51.6648 137.714 52.0644 137.714 52.5568V58H135.697V52.375C135.697 51.9242 135.561 51.5644 135.288 51.2955C135.019 51.0265 134.667 50.892 134.232 50.892C133.936 50.892 133.667 50.9678 133.425 51.1193C133.182 51.267 132.989 51.4773 132.845 51.75C132.701 52.0189 132.629 52.3333 132.629 52.6932V58H130.572ZM144.932 58V49.2727H146.989V58H144.932ZM145.966 48.0341C145.64 48.0341 145.36 47.9261 145.125 47.7102C144.89 47.4905 144.773 47.2273 144.773 46.9205C144.773 46.6098 144.89 46.3466 145.125 46.1307C145.36 45.911 145.64 45.8011 145.966 45.8011C146.295 45.8011 146.576 45.911 146.807 46.1307C147.042 46.3466 147.159 46.6098 147.159 46.9205C147.159 47.2273 147.042 47.4905 146.807 47.7102C146.576 47.9261 146.295 48.0341 145.966 48.0341ZM153.462 49.2727V50.8636H148.445V49.2727H153.462ZM149.683 47.1818H151.74V55.375C151.74 55.6515 151.782 55.8636 151.865 56.0114C151.952 56.1553 152.066 56.2538 152.206 56.3068C152.346 56.3598 152.501 56.3864 152.672 56.3864C152.801 56.3864 152.918 56.3769 153.024 56.358C153.134 56.339 153.217 56.322 153.274 56.3068L153.621 57.9148C153.511 57.9527 153.354 57.9943 153.149 58.0398C152.948 58.0852 152.702 58.1117 152.411 58.1193C151.895 58.1345 151.431 58.0568 151.018 57.8864C150.606 57.7121 150.278 57.4432 150.036 57.0795C149.797 56.7159 149.679 56.2614 149.683 55.7159V47.1818ZM157.426 52.8864V58H155.369V46.3636H157.381V50.7557H157.483C157.688 50.2633 158.004 49.875 158.432 49.5909C158.864 49.303 159.413 49.1591 160.08 49.1591C160.686 49.1591 161.214 49.286 161.665 49.5398C162.116 49.7936 162.464 50.1648 162.71 50.6534C162.96 51.142 163.085 51.7386 163.085 52.4432V58H161.028V52.7614C161.028 52.1742 160.877 51.7178 160.574 51.392C160.275 51.0625 159.854 50.8977 159.312 50.8977C158.949 50.8977 158.623 50.9773 158.335 51.1364C158.051 51.2917 157.828 51.517 157.665 51.8125C157.506 52.108 157.426 52.4659 157.426 52.8864Z" fill="#3B55F1"/>
<rect x="16.5" y="98.5" width="267" height="132" rx="12.5" stroke="#F3F3F3" stroke-dasharray="2 2"/>
<path d="M105.719 175.545V130.091H108.631V175.545H105.719ZM114.828 144.189C114.639 142.508 113.857 141.206 112.484 140.283C111.111 139.348 109.383 138.88 107.3 138.88C105.808 138.88 104.518 139.117 103.429 139.59C102.34 140.052 101.494 140.691 100.89 141.508C100.298 142.313 100.002 143.23 100.002 144.26C100.002 145.124 100.203 145.87 100.606 146.497C101.02 147.125 101.559 147.651 102.222 148.077C102.896 148.492 103.618 148.841 104.388 149.125C105.157 149.397 105.897 149.622 106.607 149.8L110.158 150.723C111.318 151.007 112.508 151.392 113.727 151.877C114.946 152.362 116.077 153.002 117.119 153.795C118.16 154.588 119.001 155.57 119.64 156.742C120.291 157.914 120.616 159.317 120.616 160.95C120.616 163.01 120.084 164.839 119.018 166.437C117.965 168.035 116.432 169.295 114.42 170.219C112.419 171.142 109.999 171.604 107.158 171.604C104.435 171.604 102.08 171.172 100.091 170.308C98.1023 169.443 96.5457 168.218 95.4212 166.632C94.2966 165.034 93.6752 163.14 93.5568 160.95H99.0611C99.1676 162.264 99.5938 163.359 100.339 164.235C101.097 165.099 102.062 165.744 103.234 166.17C104.417 166.585 105.714 166.792 107.122 166.792C108.673 166.792 110.052 166.549 111.259 166.064C112.478 165.567 113.437 164.88 114.136 164.004C114.834 163.116 115.183 162.081 115.183 160.897C115.183 159.82 114.875 158.938 114.26 158.251C113.656 157.565 112.834 156.997 111.792 156.547C110.762 156.097 109.596 155.701 108.294 155.357L103.997 154.185C101.085 153.392 98.777 152.226 97.0724 150.688C95.3797 149.149 94.5334 147.113 94.5334 144.58C94.5334 142.484 95.1016 140.656 96.2379 139.093C97.3743 137.531 98.9131 136.317 100.854 135.453C102.796 134.577 104.986 134.139 107.424 134.139C109.886 134.139 112.058 134.571 113.94 135.435C115.834 136.299 117.326 137.489 118.415 139.004C119.504 140.508 120.072 142.236 120.119 144.189H114.828ZM140.472 134.636V171H134.968V140.141H134.754L126.054 145.822V140.567L135.127 134.636H140.472ZM150.308 171V167.023L162.613 154.274C163.927 152.889 165.01 151.676 165.862 150.634C166.727 149.581 167.372 148.58 167.798 147.634C168.224 146.687 168.437 145.68 168.437 144.615C168.437 143.408 168.153 142.366 167.585 141.49C167.017 140.602 166.241 139.922 165.259 139.448C164.276 138.963 163.169 138.72 161.938 138.72C160.636 138.72 159.5 138.987 158.529 139.519C157.559 140.052 156.813 140.804 156.292 141.774C155.771 142.745 155.511 143.881 155.511 145.183H150.273C150.273 142.97 150.782 141.034 151.8 139.377C152.818 137.72 154.215 136.436 155.99 135.524C157.766 134.601 159.784 134.139 162.045 134.139C164.329 134.139 166.342 134.595 168.082 135.506C169.834 136.406 171.201 137.637 172.183 139.2C173.166 140.75 173.657 142.502 173.657 144.455C173.657 145.805 173.403 147.125 172.894 148.415C172.396 149.705 171.526 151.143 170.284 152.729C169.041 154.304 167.312 156.215 165.099 158.464L157.872 166.028V166.295H174.243V171H150.308ZM193.632 171.604C190.827 171.592 188.43 170.852 186.441 169.384C184.453 167.916 182.932 165.78 181.878 162.974C180.825 160.169 180.298 156.79 180.298 152.836C180.298 148.894 180.825 145.527 181.878 142.733C182.943 139.939 184.47 137.809 186.459 136.341C188.459 134.873 190.851 134.139 193.632 134.139C196.414 134.139 198.799 134.879 200.788 136.359C202.776 137.826 204.298 139.957 205.351 142.751C206.416 145.532 206.949 148.894 206.949 152.836C206.949 156.801 206.422 160.187 205.369 162.992C204.315 165.786 202.794 167.922 200.806 169.402C198.817 170.87 196.426 171.604 193.632 171.604ZM193.632 166.863C196.094 166.863 198.018 165.661 199.403 163.259C200.8 160.856 201.498 157.381 201.498 152.836C201.498 149.817 201.178 147.267 200.539 145.183C199.912 143.088 199.006 141.502 197.823 140.425C196.651 139.336 195.254 138.791 193.632 138.791C191.182 138.791 189.258 139.999 187.862 142.413C186.465 144.828 185.761 148.302 185.749 152.836C185.749 155.866 186.062 158.429 186.69 160.524C187.329 162.607 188.235 164.188 189.406 165.265C190.578 166.33 191.987 166.863 193.632 166.863Z" fill="black"/>
<path d="M100.045 203H96.2784V191.364H100.165C101.305 191.364 102.284 191.597 103.102 192.062C103.92 192.525 104.547 193.189 104.983 194.057C105.422 194.92 105.642 195.956 105.642 197.165C105.642 198.377 105.42 199.419 104.977 200.29C104.538 201.161 103.902 201.831 103.068 202.301C102.235 202.767 101.227 203 100.045 203ZM98.0341 201.466H99.9489C100.835 201.466 101.572 201.299 102.159 200.966C102.746 200.629 103.186 200.142 103.477 199.506C103.769 198.866 103.915 198.085 103.915 197.165C103.915 196.252 103.769 195.477 103.477 194.841C103.189 194.205 102.759 193.722 102.188 193.392C101.616 193.062 100.905 192.898 100.057 192.898H98.0341V201.466ZM110.229 203.193C109.676 203.193 109.176 203.091 108.729 202.886C108.282 202.678 107.928 202.377 107.666 201.983C107.409 201.589 107.28 201.106 107.28 200.534C107.28 200.042 107.375 199.636 107.564 199.318C107.753 199 108.009 198.748 108.331 198.562C108.653 198.377 109.013 198.237 109.411 198.142C109.808 198.047 110.214 197.975 110.626 197.926C111.149 197.866 111.573 197.816 111.899 197.778C112.225 197.737 112.462 197.67 112.609 197.58C112.757 197.489 112.831 197.341 112.831 197.136V197.097C112.831 196.6 112.691 196.216 112.411 195.943C112.134 195.67 111.721 195.534 111.172 195.534C110.6 195.534 110.149 195.661 109.82 195.915C109.494 196.165 109.268 196.443 109.143 196.75L107.547 196.386C107.736 195.856 108.013 195.428 108.376 195.102C108.744 194.773 109.166 194.534 109.643 194.386C110.121 194.235 110.623 194.159 111.149 194.159C111.498 194.159 111.867 194.201 112.257 194.284C112.651 194.364 113.018 194.511 113.359 194.727C113.704 194.943 113.986 195.252 114.206 195.653C114.426 196.051 114.536 196.568 114.536 197.205V203H112.876V201.807H112.808C112.698 202.027 112.534 202.242 112.314 202.455C112.094 202.667 111.812 202.843 111.467 202.983C111.123 203.123 110.71 203.193 110.229 203.193ZM110.598 201.83C111.068 201.83 111.469 201.737 111.803 201.551C112.14 201.366 112.395 201.123 112.57 200.824C112.748 200.521 112.837 200.197 112.837 199.852V198.727C112.776 198.788 112.659 198.845 112.484 198.898C112.314 198.947 112.119 198.991 111.899 199.028C111.679 199.062 111.465 199.095 111.257 199.125C111.049 199.152 110.875 199.174 110.734 199.193C110.405 199.235 110.104 199.305 109.831 199.403C109.562 199.502 109.346 199.644 109.183 199.83C109.024 200.011 108.945 200.254 108.945 200.557C108.945 200.977 109.1 201.295 109.411 201.511C109.721 201.723 110.117 201.83 110.598 201.83ZM117.56 206.273C117.306 206.273 117.075 206.252 116.866 206.21C116.658 206.172 116.503 206.131 116.401 206.085L116.81 204.693C117.12 204.777 117.397 204.813 117.639 204.801C117.882 204.79 118.096 204.699 118.281 204.528C118.471 204.358 118.637 204.08 118.781 203.693L118.991 203.114L115.798 194.273H117.616L119.827 201.045H119.918L122.128 194.273H123.952L120.355 204.165C120.188 204.619 119.976 205.004 119.719 205.318C119.461 205.636 119.154 205.875 118.798 206.034C118.442 206.193 118.029 206.273 117.56 206.273ZM128.928 203.176C128.083 203.176 127.356 202.985 126.746 202.602C126.14 202.216 125.674 201.684 125.348 201.006C125.022 200.328 124.859 199.551 124.859 198.676C124.859 197.79 125.026 197.008 125.359 196.33C125.693 195.648 126.162 195.116 126.768 194.733C127.375 194.35 128.089 194.159 128.911 194.159C129.573 194.159 130.164 194.282 130.683 194.528C131.202 194.771 131.621 195.112 131.939 195.551C132.261 195.991 132.452 196.504 132.513 197.091H130.859C130.768 196.682 130.56 196.33 130.234 196.034C129.912 195.739 129.481 195.591 128.939 195.591C128.465 195.591 128.051 195.716 127.695 195.966C127.342 196.212 127.068 196.564 126.871 197.023C126.674 197.477 126.575 198.015 126.575 198.636C126.575 199.273 126.672 199.822 126.865 200.284C127.058 200.746 127.331 201.104 127.683 201.358C128.039 201.612 128.458 201.739 128.939 201.739C129.261 201.739 129.553 201.68 129.814 201.562C130.079 201.441 130.301 201.269 130.479 201.045C130.661 200.822 130.787 200.553 130.859 200.239H132.513C132.452 200.803 132.268 201.307 131.962 201.75C131.655 202.193 131.244 202.542 130.729 202.795C130.217 203.049 129.617 203.176 128.928 203.176ZM136.869 203.193C136.316 203.193 135.816 203.091 135.369 202.886C134.922 202.678 134.568 202.377 134.307 201.983C134.049 201.589 133.92 201.106 133.92 200.534C133.92 200.042 134.015 199.636 134.205 199.318C134.394 199 134.65 198.748 134.972 198.562C135.294 198.377 135.653 198.237 136.051 198.142C136.449 198.047 136.854 197.975 137.267 197.926C137.79 197.866 138.214 197.816 138.54 197.778C138.866 197.737 139.102 197.67 139.25 197.58C139.398 197.489 139.472 197.341 139.472 197.136V197.097C139.472 196.6 139.331 196.216 139.051 195.943C138.775 195.67 138.362 195.534 137.812 195.534C137.241 195.534 136.79 195.661 136.46 195.915C136.134 196.165 135.909 196.443 135.784 196.75L134.188 196.386C134.377 195.856 134.653 195.428 135.017 195.102C135.384 194.773 135.807 194.534 136.284 194.386C136.761 194.235 137.263 194.159 137.79 194.159C138.138 194.159 138.508 194.201 138.898 194.284C139.292 194.364 139.659 194.511 140 194.727C140.345 194.943 140.627 195.252 140.847 195.653C141.066 196.051 141.176 196.568 141.176 197.205V203H139.517V201.807H139.449C139.339 202.027 139.174 202.242 138.955 202.455C138.735 202.667 138.453 202.843 138.108 202.983C137.763 203.123 137.35 203.193 136.869 203.193ZM137.239 201.83C137.708 201.83 138.11 201.737 138.443 201.551C138.78 201.366 139.036 201.123 139.21 200.824C139.388 200.521 139.477 200.197 139.477 199.852V198.727C139.417 198.788 139.299 198.845 139.125 198.898C138.955 198.947 138.759 198.991 138.54 199.028C138.32 199.062 138.106 199.095 137.898 199.125C137.689 199.152 137.515 199.174 137.375 199.193C137.045 199.235 136.744 199.305 136.472 199.403C136.203 199.502 135.987 199.644 135.824 199.83C135.665 200.011 135.585 200.254 135.585 200.557C135.585 200.977 135.741 201.295 136.051 201.511C136.362 201.723 136.758 201.83 137.239 201.83ZM143.439 203V194.273H145.081V195.659H145.172C145.331 195.189 145.611 194.82 146.013 194.551C146.418 194.278 146.876 194.142 147.388 194.142C147.494 194.142 147.619 194.146 147.763 194.153C147.911 194.161 148.026 194.17 148.109 194.182V195.807C148.041 195.788 147.92 195.767 147.746 195.744C147.571 195.718 147.397 195.705 147.223 195.705C146.821 195.705 146.464 195.79 146.149 195.96C145.839 196.127 145.592 196.36 145.411 196.659C145.229 196.955 145.138 197.292 145.138 197.67V203H143.439ZM153.028 203.176C152.169 203.176 151.428 202.992 150.807 202.625C150.189 202.254 149.712 201.733 149.375 201.062C149.042 200.388 148.875 199.598 148.875 198.693C148.875 197.799 149.042 197.011 149.375 196.33C149.712 195.648 150.182 195.116 150.784 194.733C151.39 194.35 152.098 194.159 152.909 194.159C153.402 194.159 153.879 194.241 154.341 194.403C154.803 194.566 155.218 194.822 155.585 195.17C155.953 195.519 156.242 195.972 156.455 196.528C156.667 197.081 156.773 197.754 156.773 198.545V199.148H149.835V197.875H155.108C155.108 197.428 155.017 197.032 154.835 196.688C154.653 196.339 154.398 196.064 154.068 195.864C153.742 195.663 153.36 195.562 152.92 195.562C152.443 195.562 152.027 195.68 151.67 195.915C151.318 196.146 151.045 196.449 150.852 196.824C150.663 197.195 150.568 197.598 150.568 198.034V199.028C150.568 199.612 150.67 200.108 150.875 200.517C151.083 200.926 151.373 201.239 151.744 201.455C152.116 201.667 152.549 201.773 153.045 201.773C153.367 201.773 153.661 201.727 153.926 201.636C154.191 201.542 154.42 201.402 154.614 201.216C154.807 201.03 154.955 200.801 155.057 200.528L156.665 200.818C156.536 201.292 156.305 201.706 155.972 202.062C155.642 202.415 155.227 202.689 154.727 202.886C154.231 203.08 153.665 203.176 153.028 203.176ZM163.028 203V191.364H167.176C168.081 191.364 168.831 191.528 169.426 191.858C170.021 192.187 170.466 192.638 170.761 193.21C171.057 193.778 171.205 194.419 171.205 195.131C171.205 195.847 171.055 196.491 170.756 197.062C170.46 197.631 170.013 198.081 169.415 198.415C168.82 198.744 168.072 198.909 167.17 198.909H164.318V197.42H167.011C167.583 197.42 168.047 197.322 168.403 197.125C168.759 196.924 169.021 196.652 169.188 196.307C169.354 195.962 169.438 195.57 169.438 195.131C169.438 194.691 169.354 194.301 169.188 193.96C169.021 193.619 168.758 193.352 168.398 193.159C168.042 192.966 167.572 192.869 166.989 192.869H164.784V203H163.028ZM175.588 203.193C175.035 203.193 174.535 203.091 174.088 202.886C173.641 202.678 173.287 202.377 173.026 201.983C172.768 201.589 172.639 201.106 172.639 200.534C172.639 200.042 172.734 199.636 172.923 199.318C173.113 199 173.368 198.748 173.69 198.562C174.012 198.377 174.372 198.237 174.77 198.142C175.168 198.047 175.573 197.975 175.986 197.926C176.509 197.866 176.933 197.816 177.259 197.778C177.584 197.737 177.821 197.67 177.969 197.58C178.116 197.489 178.19 197.341 178.19 197.136V197.097C178.19 196.6 178.05 196.216 177.77 195.943C177.493 195.67 177.08 195.534 176.531 195.534C175.959 195.534 175.509 195.661 175.179 195.915C174.853 196.165 174.628 196.443 174.503 196.75L172.906 196.386C173.096 195.856 173.372 195.428 173.736 195.102C174.103 194.773 174.526 194.534 175.003 194.386C175.48 194.235 175.982 194.159 176.509 194.159C176.857 194.159 177.226 194.201 177.616 194.284C178.01 194.364 178.378 194.511 178.719 194.727C179.063 194.943 179.346 195.252 179.565 195.653C179.785 196.051 179.895 196.568 179.895 197.205V203H178.236V201.807H178.168C178.058 202.027 177.893 202.242 177.673 202.455C177.454 202.667 177.171 202.843 176.827 202.983C176.482 203.123 176.069 203.193 175.588 203.193ZM175.957 201.83C176.427 201.83 176.829 201.737 177.162 201.551C177.499 201.366 177.755 201.123 177.929 200.824C178.107 200.521 178.196 200.197 178.196 199.852V198.727C178.135 198.788 178.018 198.845 177.844 198.898C177.673 198.947 177.478 198.991 177.259 199.028C177.039 199.062 176.825 199.095 176.616 199.125C176.408 199.152 176.234 199.174 176.094 199.193C175.764 199.235 175.463 199.305 175.19 199.403C174.921 199.502 174.705 199.644 174.543 199.83C174.384 200.011 174.304 200.254 174.304 200.557C174.304 200.977 174.459 201.295 174.77 201.511C175.08 201.723 175.476 201.83 175.957 201.83ZM182.919 206.273C182.665 206.273 182.434 206.252 182.226 206.21C182.018 206.172 181.862 206.131 181.76 206.085L182.169 204.693C182.48 204.777 182.756 204.813 182.999 204.801C183.241 204.79 183.455 204.699 183.641 204.528C183.83 204.358 183.997 204.08 184.141 203.693L184.351 203.114L181.158 194.273H182.976L185.186 201.045H185.277L187.487 194.273H189.311L185.714 204.165C185.548 204.619 185.336 205.004 185.078 205.318C184.821 205.636 184.514 205.875 184.158 206.034C183.802 206.193 183.389 206.273 182.919 206.273ZM190.908 203V194.273H192.538V195.693H192.646C192.828 195.212 193.125 194.837 193.538 194.568C193.951 194.295 194.446 194.159 195.021 194.159C195.605 194.159 196.093 194.295 196.487 194.568C196.885 194.841 197.179 195.216 197.368 195.693H197.459C197.667 195.227 197.999 194.856 198.453 194.58C198.908 194.299 199.449 194.159 200.078 194.159C200.87 194.159 201.516 194.407 202.016 194.903C202.519 195.4 202.771 196.148 202.771 197.148V203H201.072V197.307C201.072 196.716 200.911 196.288 200.589 196.023C200.268 195.758 199.883 195.625 199.436 195.625C198.883 195.625 198.453 195.795 198.146 196.136C197.839 196.473 197.686 196.907 197.686 197.438V203H195.993V197.199C195.993 196.725 195.845 196.345 195.55 196.057C195.254 195.769 194.87 195.625 194.396 195.625C194.074 195.625 193.777 195.71 193.504 195.881C193.235 196.047 193.018 196.28 192.851 196.58C192.688 196.879 192.607 197.225 192.607 197.619V203H190.908ZM208.81 203.176C207.95 203.176 207.209 202.992 206.588 202.625C205.971 202.254 205.493 201.733 205.156 201.062C204.823 200.388 204.656 199.598 204.656 198.693C204.656 197.799 204.823 197.011 205.156 196.33C205.493 195.648 205.963 195.116 206.565 194.733C207.171 194.35 207.88 194.159 208.69 194.159C209.183 194.159 209.66 194.241 210.122 194.403C210.584 194.566 210.999 194.822 211.366 195.17C211.734 195.519 212.024 195.972 212.236 196.528C212.448 197.081 212.554 197.754 212.554 198.545V199.148H205.616V197.875H210.889C210.889 197.428 210.798 197.032 210.616 196.688C210.435 196.339 210.179 196.064 209.849 195.864C209.524 195.663 209.141 195.562 208.702 195.562C208.224 195.562 207.808 195.68 207.452 195.915C207.099 196.146 206.827 196.449 206.634 196.824C206.444 197.195 206.349 197.598 206.349 198.034V199.028C206.349 199.612 206.452 200.108 206.656 200.517C206.865 200.926 207.154 201.239 207.526 201.455C207.897 201.667 208.33 201.773 208.827 201.773C209.149 201.773 209.442 201.727 209.707 201.636C209.973 201.542 210.202 201.402 210.395 201.216C210.588 201.03 210.736 200.801 210.838 200.528L212.446 200.818C212.317 201.292 212.086 201.706 211.753 202.062C211.423 202.415 211.009 202.689 210.509 202.886C210.012 203.08 209.446 203.176 208.81 203.176ZM216.138 197.818V203H214.439V194.273H216.07V195.693H216.178C216.378 195.231 216.693 194.86 217.121 194.58C217.553 194.299 218.096 194.159 218.751 194.159C219.346 194.159 219.867 194.284 220.314 194.534C220.761 194.78 221.107 195.148 221.354 195.636C221.6 196.125 221.723 196.729 221.723 197.449V203H220.024V197.653C220.024 197.021 219.859 196.527 219.53 196.17C219.2 195.811 218.748 195.631 218.172 195.631C217.778 195.631 217.428 195.716 217.121 195.886C216.818 196.057 216.577 196.307 216.399 196.636C216.225 196.962 216.138 197.356 216.138 197.818ZM228.075 194.273V195.636H223.308V194.273H228.075ZM224.587 192.182H226.286V200.438C226.286 200.767 226.335 201.015 226.433 201.182C226.532 201.345 226.659 201.456 226.814 201.517C226.973 201.574 227.145 201.602 227.331 201.602C227.467 201.602 227.587 201.593 227.689 201.574C227.791 201.555 227.871 201.54 227.928 201.528L228.234 202.932C228.136 202.97 227.996 203.008 227.814 203.045C227.632 203.087 227.405 203.11 227.132 203.114C226.685 203.121 226.268 203.042 225.882 202.875C225.496 202.708 225.183 202.451 224.945 202.102C224.706 201.754 224.587 201.316 224.587 200.79V192.182Z" fill="#C6C5C5"/>
<g clip-path="url(#clip0_115_829)">
<path fill-rule="evenodd" clip-rule="evenodd" d="M85.6562 204.625C88.6131 204.625 91 203.438 91 201.656V190.375C91 189.188 88.625 188 85.6562 188C82.6875 188 80.3125 189.188 80.3125 190.375V194.531C81.7019 195.113 82.8894 196.087 83.7325 197.322C84.3144 197.436 84.9556 197.499 85.6562 197.499C87.2119 197.499 88.5063 197.189 89.4325 196.684C89.564 196.612 89.692 196.533 89.8161 196.449V198.088C89.8161 198.367 89.594 198.8 88.8637 199.199C88.1559 199.585 87.0706 199.869 85.6574 199.869C85.3748 199.869 85.1056 199.858 84.8499 199.837C84.9449 200.227 85.0083 200.627 85.0399 201.036C85.2402 201.047 85.4461 201.053 85.6574 201.053C87.2131 201.053 88.5074 200.743 89.4337 200.238C89.5652 200.166 89.6932 200.088 89.8172 200.003V201.642C89.8172 201.922 89.6403 202.338 88.8779 202.749C88.1274 203.153 87.0017 203.423 85.6598 203.423C85.3867 203.423 85.1223 203.412 84.8666 203.39C84.7753 203.785 84.6526 204.171 84.4996 204.547C84.8733 204.589 85.2596 204.61 85.6586 204.61L85.6562 204.625ZM88.8625 195.648C89.5928 195.248 89.8149 194.815 89.8149 194.536V192.897C89.6922 192.981 89.5643 193.06 89.4313 193.132C88.5074 193.637 87.2107 193.947 85.6551 193.947C84.0994 193.947 82.8051 193.637 81.8788 193.132C81.7473 193.06 81.6193 192.982 81.4952 192.897V194.536C81.4952 194.815 81.7173 195.249 82.4476 195.646C83.1554 196.032 84.2408 196.316 85.6539 196.316C87.067 196.316 88.1476 196.032 88.8601 195.646L88.8625 195.648ZM81.5 190.969C81.5 190.627 81.6484 190.298 81.9251 190.097C82.0759 189.988 82.2398 189.879 82.3693 189.819C82.6934 189.67 84.3168 189.186 85.6586 189.186C87.0005 189.186 88.1643 189.456 88.948 189.819C89.0953 189.887 89.2579 189.993 89.4016 190.097C89.6759 190.295 89.8172 190.622 89.8172 190.96V190.968C89.8172 191.247 89.5952 191.68 88.8649 192.079C88.1571 192.465 87.0717 192.749 85.6586 192.749C84.2455 192.749 83.1649 192.464 82.4524 192.079C81.7221 191.681 81.5 191.247 81.5 190.969Z" fill="#C6C5C5"/>
<path fill-rule="evenodd" clip-rule="evenodd" d="M82.6875 201.656C82.6875 204.613 80.3006 207 77.3438 207C74.3869 207 72 204.613 72 201.656C72 198.699 74.3869 196.312 77.3438 196.312C80.3006 196.312 82.6875 198.699 82.6875 201.656ZM81.5 201.656C81.5 203.948 79.6356 205.812 77.3438 205.812C75.0519 205.812 73.1875 203.948 73.1875 201.656C73.1875 199.364 75.0519 197.5 77.3438 197.5C79.6356 197.5 81.5 199.364 81.5 201.656Z" fill="#C6C5C5"/>
</g>
<rect x="36" y="254" width="228" height="39" rx="4" fill="#9DE6A9"/>
<rect x="54.5" y="264.5" width="18" height="18" rx="1.5" fill="white"/>
<rect x="54.5" y="264.5" width="18" height="18" rx="1.5" stroke="#407A4A"/>
<path d="M90.625 270.42C90.5644 269.883 90.3144 269.466 89.875 269.17C89.4356 268.871 88.8826 268.722 88.2159 268.722C87.7386 268.722 87.3258 268.797 86.9773 268.949C86.6288 269.097 86.358 269.301 86.1648 269.562C85.9754 269.82 85.8807 270.114 85.8807 270.443C85.8807 270.72 85.9451 270.958 86.0739 271.159C86.2064 271.36 86.3788 271.528 86.5909 271.665C86.8068 271.797 87.0379 271.909 87.2841 272C87.5303 272.087 87.767 272.159 87.9943 272.216L89.1307 272.511C89.5019 272.602 89.8826 272.725 90.2727 272.881C90.6629 273.036 91.0246 273.241 91.358 273.494C91.6913 273.748 91.9602 274.062 92.1648 274.438C92.3731 274.812 92.4773 275.261 92.4773 275.784C92.4773 276.443 92.3068 277.028 91.9659 277.54C91.6288 278.051 91.1383 278.455 90.4943 278.75C89.8542 279.045 89.0795 279.193 88.1705 279.193C87.2992 279.193 86.5455 279.055 85.9091 278.778C85.2727 278.502 84.7746 278.11 84.4148 277.602C84.0549 277.091 83.8561 276.485 83.8182 275.784H85.5795C85.6136 276.205 85.75 276.555 85.9886 276.835C86.2311 277.112 86.5398 277.318 86.9148 277.455C87.2936 277.587 87.7083 277.653 88.1591 277.653C88.6553 277.653 89.0966 277.576 89.483 277.42C89.8731 277.261 90.1799 277.042 90.4034 276.761C90.6269 276.477 90.7386 276.146 90.7386 275.767C90.7386 275.422 90.6402 275.14 90.4432 274.92C90.25 274.701 89.9867 274.519 89.6534 274.375C89.3239 274.231 88.9508 274.104 88.5341 273.994L87.1591 273.619C86.2273 273.366 85.4886 272.992 84.9432 272.5C84.4015 272.008 84.1307 271.356 84.1307 270.545C84.1307 269.875 84.3125 269.29 84.6761 268.79C85.0398 268.29 85.5322 267.902 86.1534 267.625C86.7746 267.345 87.4754 267.205 88.2557 267.205C89.0436 267.205 89.7386 267.343 90.3409 267.619C90.947 267.896 91.4242 268.277 91.7727 268.761C92.1212 269.242 92.303 269.795 92.3182 270.42H90.625ZM98.2003 279.176C97.3404 279.176 96.5999 278.992 95.9787 278.625C95.3613 278.254 94.884 277.733 94.5469 277.062C94.2135 276.388 94.0469 275.598 94.0469 274.693C94.0469 273.799 94.2135 273.011 94.5469 272.33C94.884 271.648 95.3537 271.116 95.956 270.733C96.562 270.35 97.2704 270.159 98.081 270.159C98.5734 270.159 99.0507 270.241 99.5128 270.403C99.9749 270.566 100.39 270.822 100.757 271.17C101.125 271.519 101.414 271.972 101.626 272.528C101.839 273.081 101.945 273.754 101.945 274.545V275.148H95.0071V273.875H100.28C100.28 273.428 100.189 273.032 100.007 272.688C99.8253 272.339 99.5696 272.064 99.2401 271.864C98.9143 271.663 98.5317 271.562 98.0923 271.562C97.6151 271.562 97.1984 271.68 96.8423 271.915C96.4901 272.146 96.2173 272.449 96.0241 272.824C95.8348 273.195 95.7401 273.598 95.7401 274.034V275.028C95.7401 275.612 95.8423 276.108 96.0469 276.517C96.2552 276.926 96.545 277.239 96.9162 277.455C97.2874 277.667 97.7211 277.773 98.2173 277.773C98.5393 277.773 98.8329 277.727 99.098 277.636C99.3632 277.542 99.5923 277.402 99.7855 277.216C99.9787 277.03 100.126 276.801 100.229 276.528L101.837 276.818C101.708 277.292 101.477 277.706 101.143 278.062C100.814 278.415 100.399 278.689 99.8991 278.886C99.4029 279.08 98.8366 279.176 98.2003 279.176ZM107.903 270.273V271.636H103.136V270.273H107.903ZM104.415 268.182H106.114V276.438C106.114 276.767 106.163 277.015 106.261 277.182C106.36 277.345 106.487 277.456 106.642 277.517C106.801 277.574 106.973 277.602 107.159 277.602C107.295 277.602 107.415 277.593 107.517 277.574C107.619 277.555 107.699 277.54 107.756 277.528L108.062 278.932C107.964 278.97 107.824 279.008 107.642 279.045C107.46 279.087 107.233 279.11 106.96 279.114C106.513 279.121 106.097 279.042 105.71 278.875C105.324 278.708 105.011 278.451 104.773 278.102C104.534 277.754 104.415 277.316 104.415 276.79V268.182ZM115.311 275.381V270.273H117.016V279H115.345V277.489H115.254C115.054 277.955 114.732 278.343 114.288 278.653C113.849 278.96 113.302 279.114 112.646 279.114C112.086 279.114 111.589 278.991 111.158 278.744C110.73 278.494 110.393 278.125 110.146 277.636C109.904 277.148 109.783 276.544 109.783 275.824V270.273H111.482V275.619C111.482 276.214 111.646 276.687 111.976 277.04C112.305 277.392 112.733 277.568 113.26 277.568C113.578 277.568 113.894 277.489 114.209 277.33C114.527 277.17 114.79 276.93 114.999 276.608C115.211 276.286 115.315 275.877 115.311 275.381ZM119.298 282.273V270.273H120.957V271.688H121.099C121.198 271.506 121.34 271.295 121.526 271.057C121.711 270.818 121.969 270.61 122.298 270.432C122.628 270.25 123.063 270.159 123.605 270.159C124.31 270.159 124.938 270.337 125.491 270.693C126.045 271.049 126.478 271.562 126.793 272.233C127.111 272.903 127.27 273.71 127.27 274.653C127.27 275.597 127.113 276.405 126.798 277.08C126.484 277.75 126.052 278.267 125.503 278.631C124.954 278.991 124.327 279.17 123.622 279.17C123.092 279.17 122.658 279.081 122.321 278.903C121.988 278.725 121.726 278.517 121.537 278.278C121.348 278.04 121.202 277.828 121.099 277.642H120.997V282.273H119.298ZM120.963 274.636C120.963 275.25 121.052 275.788 121.23 276.25C121.408 276.712 121.666 277.074 122.003 277.335C122.34 277.593 122.753 277.722 123.241 277.722C123.749 277.722 124.173 277.587 124.514 277.318C124.855 277.045 125.113 276.676 125.287 276.21C125.465 275.744 125.554 275.22 125.554 274.636C125.554 274.061 125.467 273.544 125.293 273.085C125.122 272.627 124.865 272.265 124.52 272C124.179 271.735 123.753 271.602 123.241 271.602C122.749 271.602 122.332 271.729 121.991 271.983C121.654 272.237 121.399 272.591 121.224 273.045C121.05 273.5 120.963 274.03 120.963 274.636ZM134.527 279H132.663L136.851 267.364H138.879L143.067 279H141.203L137.913 269.477H137.822L134.527 279ZM134.839 274.443H140.885V275.92H134.839V274.443ZM150.139 275.381V270.273H151.844V279H150.173V277.489H150.082C149.882 277.955 149.56 278.343 149.116 278.653C148.677 278.96 148.13 279.114 147.474 279.114C146.914 279.114 146.418 278.991 145.986 278.744C145.558 278.494 145.221 278.125 144.974 277.636C144.732 277.148 144.611 276.544 144.611 275.824V270.273H146.31V275.619C146.31 276.214 146.474 276.687 146.804 277.04C147.134 277.392 147.562 277.568 148.088 277.568C148.406 277.568 148.723 277.489 149.037 277.33C149.355 277.17 149.618 276.93 149.827 276.608C150.039 276.286 150.143 275.877 150.139 275.381ZM158.2 270.273V271.636H153.433V270.273H158.2ZM154.712 268.182H156.411V276.438C156.411 276.767 156.46 277.015 156.558 277.182C156.657 277.345 156.784 277.456 156.939 277.517C157.098 277.574 157.27 277.602 157.456 277.602C157.592 277.602 157.712 277.593 157.814 277.574C157.916 277.555 157.996 277.54 158.053 277.528L158.359 278.932C158.261 278.97 158.121 279.008 157.939 279.045C157.757 279.087 157.53 279.11 157.257 279.114C156.81 279.121 156.393 279.042 156.007 278.875C155.621 278.708 155.308 278.451 155.07 278.102C154.831 277.754 154.712 277.316 154.712 276.79V268.182ZM163.662 279.176C162.844 279.176 162.13 278.989 161.52 278.614C160.91 278.239 160.437 277.714 160.099 277.04C159.762 276.366 159.594 275.578 159.594 274.676C159.594 273.771 159.762 272.979 160.099 272.301C160.437 271.623 160.91 271.097 161.52 270.722C162.13 270.347 162.844 270.159 163.662 270.159C164.48 270.159 165.194 270.347 165.804 270.722C166.414 271.097 166.887 271.623 167.224 272.301C167.562 272.979 167.73 273.771 167.73 274.676C167.73 275.578 167.562 276.366 167.224 277.04C166.887 277.714 166.414 278.239 165.804 278.614C165.194 278.989 164.48 279.176 163.662 279.176ZM163.668 277.75C164.198 277.75 164.637 277.61 164.986 277.33C165.334 277.049 165.592 276.676 165.759 276.21C165.929 275.744 166.014 275.231 166.014 274.67C166.014 274.114 165.929 273.602 165.759 273.136C165.592 272.667 165.334 272.29 164.986 272.006C164.637 271.722 164.198 271.58 163.668 271.58C163.134 271.58 162.69 271.722 162.338 272.006C161.99 272.29 161.73 272.667 161.56 273.136C161.393 273.602 161.31 274.114 161.31 274.67C161.31 275.231 161.393 275.744 161.56 276.21C161.73 276.676 161.99 277.049 162.338 277.33C162.69 277.61 163.134 277.75 163.668 277.75ZM173.997 279V267.364H178.145C179.046 267.364 179.795 267.519 180.389 267.83C180.988 268.14 181.435 268.57 181.73 269.119C182.026 269.665 182.173 270.295 182.173 271.011C182.173 271.723 182.024 272.35 181.724 272.892C181.429 273.43 180.982 273.848 180.384 274.148C179.789 274.447 179.041 274.597 178.139 274.597H174.997V273.085H177.98C178.548 273.085 179.01 273.004 179.366 272.841C179.726 272.678 179.99 272.441 180.156 272.131C180.323 271.82 180.406 271.447 180.406 271.011C180.406 270.572 180.321 270.191 180.151 269.869C179.984 269.547 179.721 269.301 179.361 269.131C179.005 268.956 178.537 268.869 177.957 268.869H175.753V279H173.997ZM179.741 273.75L182.616 279H180.616L177.798 273.75H179.741ZM187.825 279.176C186.965 279.176 186.225 278.992 185.604 278.625C184.986 278.254 184.509 277.733 184.172 277.062C183.839 276.388 183.672 275.598 183.672 274.693C183.672 273.799 183.839 273.011 184.172 272.33C184.509 271.648 184.979 271.116 185.581 270.733C186.187 270.35 186.895 270.159 187.706 270.159C188.198 270.159 188.676 270.241 189.138 270.403C189.6 270.566 190.015 270.822 190.382 271.17C190.75 271.519 191.039 271.972 191.251 272.528C191.464 273.081 191.57 273.754 191.57 274.545V275.148H184.632V273.875H189.905C189.905 273.428 189.814 273.032 189.632 272.688C189.45 272.339 189.195 272.064 188.865 271.864C188.539 271.663 188.157 271.562 187.717 271.562C187.24 271.562 186.823 271.68 186.467 271.915C186.115 272.146 185.842 272.449 185.649 272.824C185.46 273.195 185.365 273.598 185.365 274.034V275.028C185.365 275.612 185.467 276.108 185.672 276.517C185.88 276.926 186.17 277.239 186.541 277.455C186.912 277.667 187.346 277.773 187.842 277.773C188.164 277.773 188.458 277.727 188.723 277.636C188.988 277.542 189.217 277.402 189.411 277.216C189.604 277.03 189.751 276.801 189.854 276.528L191.462 276.818C191.333 277.292 191.102 277.706 190.768 278.062C190.439 278.415 190.024 278.689 189.524 278.886C189.028 279.08 188.462 279.176 187.825 279.176ZM193.455 279V270.273H195.085V271.693H195.193C195.375 271.212 195.672 270.837 196.085 270.568C196.498 270.295 196.992 270.159 197.568 270.159C198.152 270.159 198.64 270.295 199.034 270.568C199.432 270.841 199.725 271.216 199.915 271.693H200.006C200.214 271.227 200.545 270.856 201 270.58C201.455 270.299 201.996 270.159 202.625 270.159C203.417 270.159 204.062 270.407 204.562 270.903C205.066 271.4 205.318 272.148 205.318 273.148V279H203.619V273.307C203.619 272.716 203.458 272.288 203.136 272.023C202.814 271.758 202.43 271.625 201.983 271.625C201.43 271.625 201 271.795 200.693 272.136C200.386 272.473 200.233 272.907 200.233 273.438V279H198.54V273.199C198.54 272.725 198.392 272.345 198.097 272.057C197.801 271.769 197.417 271.625 196.943 271.625C196.621 271.625 196.324 271.71 196.051 271.881C195.782 272.047 195.564 272.28 195.398 272.58C195.235 272.879 195.153 273.225 195.153 273.619V279H193.455ZM207.595 279V270.273H209.294V279H207.595ZM208.453 268.926C208.158 268.926 207.904 268.828 207.692 268.631C207.483 268.43 207.379 268.191 207.379 267.915C207.379 267.634 207.483 267.396 207.692 267.199C207.904 266.998 208.158 266.898 208.453 266.898C208.749 266.898 209 266.998 209.209 267.199C209.421 267.396 209.527 267.634 209.527 267.915C209.527 268.191 209.421 268.43 209.209 268.631C209 268.828 208.749 268.926 208.453 268.926ZM213.278 273.818V279H211.58V270.273H213.21V271.693H213.318C213.519 271.231 213.833 270.86 214.261 270.58C214.693 270.299 215.237 270.159 215.892 270.159C216.487 270.159 217.008 270.284 217.455 270.534C217.902 270.78 218.248 271.148 218.494 271.636C218.741 272.125 218.864 272.729 218.864 273.449V279H217.165V273.653C217.165 273.021 217 272.527 216.67 272.17C216.341 271.811 215.888 271.631 215.312 271.631C214.919 271.631 214.568 271.716 214.261 271.886C213.958 272.057 213.718 272.307 213.54 272.636C213.366 272.962 213.278 273.356 213.278 273.818ZM224.409 279.17C223.705 279.17 223.076 278.991 222.523 278.631C221.973 278.267 221.542 277.75 221.227 277.08C220.917 276.405 220.761 275.597 220.761 274.653C220.761 273.71 220.919 272.903 221.233 272.233C221.551 271.562 221.987 271.049 222.54 270.693C223.093 270.337 223.72 270.159 224.42 270.159C224.962 270.159 225.398 270.25 225.727 270.432C226.061 270.61 226.318 270.818 226.5 271.057C226.686 271.295 226.83 271.506 226.932 271.688H227.034V267.364H228.733V279H227.074V277.642H226.932C226.83 277.828 226.682 278.04 226.489 278.278C226.299 278.517 226.038 278.725 225.705 278.903C225.371 279.081 224.939 279.17 224.409 279.17ZM224.784 277.722C225.273 277.722 225.686 277.593 226.023 277.335C226.364 277.074 226.621 276.712 226.795 276.25C226.973 275.788 227.062 275.25 227.062 274.636C227.062 274.03 226.975 273.5 226.801 273.045C226.627 272.591 226.371 272.237 226.034 271.983C225.697 271.729 225.28 271.602 224.784 271.602C224.273 271.602 223.847 271.735 223.506 272C223.165 272.265 222.907 272.627 222.733 273.085C222.563 273.544 222.477 274.061 222.477 274.636C222.477 275.22 222.564 275.744 222.739 276.21C222.913 276.676 223.17 277.045 223.511 277.318C223.856 277.587 224.28 277.722 224.784 277.722ZM234.919 279.176C234.059 279.176 233.319 278.992 232.697 278.625C232.08 278.254 231.603 277.733 231.266 277.062C230.932 276.388 230.766 275.598 230.766 274.693C230.766 273.799 230.932 273.011 231.266 272.33C231.603 271.648 232.072 271.116 232.675 270.733C233.281 270.35 233.989 270.159 234.8 270.159C235.292 270.159 235.769 270.241 236.232 270.403C236.694 270.566 237.108 270.822 237.476 271.17C237.843 271.519 238.133 271.972 238.345 272.528C238.557 273.081 238.663 273.754 238.663 274.545V275.148H231.726V273.875H236.999C236.999 273.428 236.908 273.032 236.726 272.688C236.544 272.339 236.288 272.064 235.959 271.864C235.633 271.663 235.25 271.562 234.811 271.562C234.334 271.562 233.917 271.68 233.561 271.915C233.209 272.146 232.936 272.449 232.743 272.824C232.554 273.195 232.459 273.598 232.459 274.034V275.028C232.459 275.612 232.561 276.108 232.766 276.517C232.974 276.926 233.264 277.239 233.635 277.455C234.006 277.667 234.44 277.773 234.936 277.773C235.258 277.773 235.552 277.727 235.817 277.636C236.082 277.542 236.311 277.402 236.504 277.216C236.697 277.03 236.845 276.801 236.947 276.528L238.555 276.818C238.427 277.292 238.196 277.706 237.862 278.062C237.533 278.415 237.118 278.689 236.618 278.886C236.122 279.08 235.555 279.176 234.919 279.176ZM240.548 279V270.273H242.19V271.659H242.281C242.44 271.189 242.721 270.82 243.122 270.551C243.527 270.278 243.986 270.142 244.497 270.142C244.603 270.142 244.728 270.146 244.872 270.153C245.02 270.161 245.135 270.17 245.219 270.182V271.807C245.151 271.788 245.029 271.767 244.855 271.744C244.681 271.718 244.507 271.705 244.332 271.705C243.931 271.705 243.573 271.79 243.259 271.96C242.948 272.127 242.702 272.36 242.52 272.659C242.338 272.955 242.247 273.292 242.247 273.67V279H240.548Z" fill="#407A4A"/>
<defs>
<clipPath id="clip0_115_829">
<rect width="19" height="19" fill="white" transform="translate(72 188)"/>
</clipPath>
</defs>
</svg>
