<svg width="30" height="30" viewBox="0 0 30 30" fill="none" xmlns="http://www.w3.org/2000/svg">
<path d="M15 1.61255L1.46484 12.4395V14.8418L15 4.01255L28.5352 14.8418V12.4395L15 1.61255ZM15 5.36255L4.27734 13.9395V28.5352H9.78516C9.79102 26.6426 9.83203 23.877 10.3828 21.4454C10.6875 20.1153 11.1387 18.8731 11.8711 17.9297C12.6094 16.9805 13.6699 16.3477 15 16.3477C16.3301 16.3477 17.3906 16.9805 18.1289 17.9297C18.8613 18.8731 19.3125 20.1153 19.6172 21.4454C20.168 23.877 20.209 26.6426 20.2148 28.5352H25.7227V13.9395L15 5.36255ZM9.60352 11.6133C9.83713 11.6193 10.0809 11.6636 10.3125 11.7422C10.5708 11.8287 10.8048 11.9547 10.988 12.1058C11.1713 12.257 11.2965 12.4274 11.3496 12.5977H18.6504C18.7035 12.4274 18.8287 12.257 19.012 12.1058C19.1952 11.9547 19.4292 11.8287 19.6875 11.7422C19.9191 11.6636 20.1629 11.6193 20.3965 11.6133C20.6472 11.6087 20.8765 11.6487 21.0601 11.7291C21.2437 11.8096 21.3748 11.9275 21.4395 12.0704C21.5235 12.2537 21.4936 12.4684 21.3547 12.6778C21.2158 12.8872 20.9765 13.0785 20.6777 13.2188C20.9364 13.3628 21.1367 13.545 21.2495 13.7389C21.3623 13.9328 21.3816 14.1283 21.3047 14.2969C21.2577 14.4015 21.175 14.4931 21.0614 14.5665C20.9478 14.6399 20.8055 14.6936 20.6427 14.7247C20.48 14.7557 20.2999 14.7634 20.1128 14.7473C19.9258 14.7312 19.7354 14.6917 19.5527 14.6309C19.2627 14.5335 19.0044 14.3866 18.8141 14.211C18.6238 14.0355 18.5112 13.8401 18.4922 13.6524H11.5078C11.4888 13.8401 11.3762 14.0355 11.1859 14.211C10.9956 14.3866 10.7373 14.5335 10.4473 14.6309C10.2646 14.6917 10.0742 14.7312 9.88719 14.7473C9.70013 14.7634 9.52004 14.7557 9.35726 14.7247C9.19447 14.6936 9.0522 14.6399 8.9386 14.5665C8.82501 14.4931 8.74233 14.4015 8.69531 14.2969C8.61841 14.1283 8.63775 13.9328 8.75051 13.7389C8.86326 13.545 9.06356 13.3628 9.32227 13.2188C9.0235 13.0785 8.78425 12.8872 8.64533 12.6778C8.50642 12.4684 8.47645 12.2537 8.56055 12.0704C8.62523 11.9275 8.75629 11.8096 8.93988 11.7291C9.12347 11.6487 9.35276 11.6087 9.60352 11.6133Z" fill="#B29EFF"/>
</svg>
