<svg width="30" height="30" viewBox="0 0 30 30" fill="none" xmlns="http://www.w3.org/2000/svg">
<path d="M12.8038 20.3925L7.5 15.0875L9.2675 13.32L12.8038 16.855L19.8738 9.78375L21.6425 11.5525L12.8038 20.3925Z" fill="#388377"/>
<path fill-rule="evenodd" clip-rule="evenodd" d="M1.25 6.25C1.25 4.92392 1.77678 3.65215 2.71447 2.71447C3.65215 1.77678 4.92392 1.25 6.25 1.25H23.75C25.0761 1.25 26.3479 1.77678 27.2855 2.71447C28.2232 3.65215 28.75 4.92392 28.75 6.25V23.75C28.75 25.0761 28.2232 26.3479 27.2855 27.2855C26.3479 28.2232 25.0761 28.75 23.75 28.75H6.25C4.92392 28.75 3.65215 28.2232 2.71447 27.2855C1.77678 26.3479 1.25 25.0761 1.25 23.75V6.25ZM6.25 3.75H23.75C24.413 3.75 25.0489 4.01339 25.5178 4.48223C25.9866 4.95107 26.25 5.58696 26.25 6.25V23.75C26.25 24.413 25.9866 25.0489 25.5178 25.5178C25.0489 25.9866 24.413 26.25 23.75 26.25H6.25C5.58696 26.25 4.95107 25.9866 4.48223 25.5178C4.01339 25.0489 3.75 24.413 3.75 23.75V6.25C3.75 5.58696 4.01339 4.95107 4.48223 4.48223C4.95107 4.01339 5.58696 3.75 6.25 3.75Z" fill="#388377"/>
</svg>
