<svg width="30" height="25" viewBox="0 0 30 25" fill="none" xmlns="http://www.w3.org/2000/svg">
<path d="M18.1928 -0.000237995H11.8074C5.29676 -0.000237995 0 5.17784 0 11.5422V12.1393C0 14.2809 1.48274 16.1452 3.60688 16.6736L5.58458 17.1626C5.50102 16.6086 5.49045 16.0374 5.49595 15.4566L4.01756 15.091C2.63542 14.7472 1.67018 13.5335 1.67018 12.1393V11.5422C1.67018 6.07785 6.21764 1.63251 11.8074 1.63251H18.1928C23.7824 1.63251 28.3298 6.07785 28.3298 11.5422V12.1393C28.3298 13.5335 27.3646 14.7472 25.9836 15.0907L25.2231 15.2788C25.1554 15.8718 25.0604 16.4593 24.9205 17.0379L26.3943 16.6733C28.5172 16.1452 30 14.2809 30 12.1393V11.5422C30 5.17784 24.7033 -0.000237995 18.1928 -0.000237995" fill="#B29EFF"/>
<path d="M15.3026 25H14.7905C9.13406 25 4.53223 20.5016 4.53223 14.972V8.24015C4.53223 7.78919 4.90613 7.42394 5.36728 7.42394C5.82844 7.42394 6.20238 7.78919 6.20238 8.24015V14.972C6.20238 19.6012 10.0549 23.3673 14.7905 23.3673H15.3026C20.0381 23.3673 23.8907 19.6012 23.8907 14.972V8.24015C23.8907 7.78919 24.2646 7.42394 24.7258 7.42394C25.187 7.42394 25.5609 7.78919 25.5609 8.24015V14.972C25.5609 20.5016 20.959 25 15.3026 25" fill="#B29EFF"/>
<path d="M10.5236 10.4554C11.3941 10.6163 11.9515 11.5147 11.7685 12.462C11.5854 13.4097 10.7313 14.0474 9.86072 13.8869C8.99017 13.726 8.43282 12.8276 8.61584 11.8803C8.79886 10.9326 9.653 10.2948 10.5236 10.4554Z" fill="#B29EFF"/>
<path d="M19.5702 10.4554C18.6996 10.6163 18.1423 11.5147 18.3253 12.462C18.5083 13.4097 19.3625 14.0474 20.233 13.8869C21.1036 13.726 21.6609 12.8276 21.4779 11.8803C21.2949 10.9326 20.4408 10.2948 19.5702 10.4554Z" fill="#B29EFF"/>
<path d="M15 16.8544C16.3592 16.8544 17.461 17.2215 17.461 17.9552C17.461 18.9339 16.3592 19.9126 15 19.9126C13.6408 19.9126 12.5391 18.9339 12.5391 17.9552C12.5391 17.2215 13.6408 16.8544 15 16.8544Z" fill="#B29EFF"/>
</svg>
