<svg width="291" height="50" viewBox="0 0 291 50" fill="none" xmlns="http://www.w3.org/2000/svg">
<rect width="291" height="50" rx="16" fill="#292C2D"/>
<rect x="10" y="10" width="30" height="30" rx="15" fill="#9DE6A9"/>
<path fill-rule="evenodd" clip-rule="evenodd" d="M34.546 18.1106C34.8272 18.3919 34.9852 18.7733 34.9852 19.1711C34.9852 19.5688 34.8272 19.9503 34.546 20.2316L23.303 31.4746C23.1544 31.6232 22.978 31.7411 22.7839 31.8215C22.5898 31.9019 22.3817 31.9433 22.1715 31.9433C21.9614 31.9433 21.7533 31.9019 21.5591 31.8215C21.365 31.7411 21.1886 31.6232 21.04 31.4746L15.454 25.8896C15.3108 25.7512 15.1965 25.5857 15.1179 25.4027C15.0393 25.2197 14.9979 25.0228 14.9962 24.8237C14.9944 24.6245 15.0324 24.427 15.1078 24.2426C15.1832 24.0583 15.2946 23.8908 15.4354 23.75C15.5763 23.6091 15.7438 23.4978 15.9281 23.4223C16.1124 23.3469 16.31 23.309 16.5091 23.3107C16.7083 23.3124 16.9051 23.3538 17.0881 23.4324C17.2711 23.511 17.4367 23.6253 17.575 23.7686L22.171 28.3646L32.424 18.1106C32.5633 17.9712 32.7287 17.8606 32.9108 17.7852C33.0928 17.7097 33.288 17.6709 33.485 17.6709C33.6821 17.6709 33.8772 17.7097 34.0593 17.7852C34.2413 17.8606 34.4067 17.9712 34.546 18.1106Z" fill="#094D16"/>
<path d="M57.886 30.168C57.1207 30.168 56.416 29.9907 55.772 29.636C55.128 29.2813 54.61 28.7587 54.218 28.068C53.8353 27.368 53.644 26.5093 53.644 25.492C53.644 24.484 53.84 23.6253 54.232 22.916C54.6333 22.1973 55.1607 21.6513 55.814 21.278C56.4767 20.8953 57.1907 20.704 57.956 20.704C58.544 20.704 59.0713 20.8253 59.538 21.068C60.0047 21.3013 60.392 21.5767 60.7 21.894L59.608 23.21C59.3747 22.9953 59.1273 22.8227 58.866 22.692C58.614 22.552 58.3247 22.482 57.998 22.482C57.5873 22.482 57.2093 22.5987 56.864 22.832C56.528 23.0653 56.2573 23.4013 56.052 23.84C55.856 24.2787 55.758 24.806 55.758 25.422C55.758 26.3553 55.9587 27.0833 56.36 27.606C56.7613 28.1287 57.298 28.39 57.97 28.39C58.3433 28.39 58.6747 28.306 58.964 28.138C59.2627 27.97 59.524 27.7693 59.748 27.536L60.84 28.824C60.0747 29.72 59.09 30.168 57.886 30.168ZM64.0077 30.168C63.2517 30.168 62.7011 29.9207 62.3557 29.426C62.0197 28.922 61.8517 28.236 61.8517 27.368V23.056H63.9097V27.102C63.9097 27.5967 63.9797 27.942 64.1197 28.138C64.2597 28.3247 64.4791 28.418 64.7777 28.418C65.0391 28.418 65.2584 28.3573 65.4357 28.236C65.6131 28.1147 65.8044 27.9187 66.0097 27.648V23.056H68.0677V30H66.3877L66.2337 29.034H66.1917C65.9024 29.3793 65.5851 29.6547 65.2397 29.86C64.8944 30.0653 64.4837 30.168 64.0077 30.168ZM71.9228 30.168C71.4654 30.168 70.9941 30.0793 70.5088 29.902C70.0328 29.7247 69.6174 29.4913 69.2628 29.202L70.1868 27.914C70.5041 28.1473 70.8074 28.3293 71.0968 28.46C71.3954 28.5813 71.6894 28.642 71.9788 28.642C72.2868 28.642 72.5108 28.5907 72.6508 28.488C72.7908 28.376 72.8608 28.2313 72.8608 28.054C72.8608 27.8953 72.7908 27.7647 72.6508 27.662C72.5201 27.5593 72.3474 27.466 72.1328 27.382C71.9181 27.2887 71.6894 27.1953 71.4468 27.102C71.1668 26.99 70.8868 26.85 70.6068 26.682C70.3361 26.514 70.1074 26.2993 69.9208 26.038C69.7341 25.7673 69.6408 25.4407 69.6408 25.058C69.6408 24.414 69.8834 23.8913 70.3688 23.49C70.8634 23.0887 71.5074 22.888 72.3008 22.888C72.8328 22.888 73.2994 22.9813 73.7008 23.168C74.1114 23.3453 74.4614 23.546 74.7508 23.77L73.8268 25.002C73.5841 24.8153 73.3414 24.6707 73.0988 24.568C72.8561 24.4653 72.6134 24.414 72.3708 24.414C71.8388 24.414 71.5728 24.596 71.5728 24.96C71.5728 25.184 71.7034 25.3567 71.9648 25.478C72.2354 25.59 72.5481 25.7113 72.9028 25.842C73.2014 25.9447 73.4908 26.08 73.7708 26.248C74.0601 26.4067 74.2981 26.6213 74.4848 26.892C74.6808 27.1533 74.7788 27.4987 74.7788 27.928C74.7788 28.5533 74.5361 29.0853 74.0508 29.524C73.5654 29.9533 72.8561 30.168 71.9228 30.168ZM78.4863 30.168C77.6277 30.168 77.0117 29.9207 76.6383 29.426C76.2743 28.9313 76.0923 28.2827 76.0923 27.48V24.666H75.1403V23.14L76.2043 23.056L76.4423 21.208H78.1503V23.056H79.8163V24.666H78.1503V27.452C78.1503 27.844 78.2297 28.1287 78.3883 28.306C78.5563 28.474 78.7757 28.558 79.0463 28.558C79.1583 28.558 79.2703 28.544 79.3823 28.516C79.5037 28.488 79.611 28.4553 79.7043 28.418L80.0263 29.916C79.849 29.972 79.6297 30.028 79.3683 30.084C79.1163 30.14 78.8223 30.168 78.4863 30.168ZM83.9076 30.168C83.3196 30.168 82.7643 30.028 82.2416 29.748C81.7283 29.4587 81.313 29.0433 80.9956 28.502C80.6783 27.9513 80.5196 27.2933 80.5196 26.528C80.5196 25.7533 80.6783 25.0953 80.9956 24.554C81.313 24.0127 81.7283 23.602 82.2416 23.322C82.7643 23.0327 83.3196 22.888 83.9076 22.888C84.4956 22.888 85.0463 23.0327 85.5596 23.322C86.073 23.602 86.4883 24.0127 86.8056 24.554C87.123 25.0953 87.2816 25.7533 87.2816 26.528C87.2816 27.2933 87.123 27.9513 86.8056 28.502C86.4883 29.0433 86.073 29.4587 85.5596 29.748C85.0463 30.028 84.4956 30.168 83.9076 30.168ZM83.9076 28.502C84.3276 28.502 84.645 28.3247 84.8596 27.97C85.0743 27.606 85.1816 27.1253 85.1816 26.528C85.1816 25.9213 85.0743 25.4407 84.8596 25.086C84.645 24.7313 84.3276 24.554 83.9076 24.554C83.4783 24.554 83.1563 24.7313 82.9416 25.086C82.7363 25.4407 82.6336 25.9213 82.6336 26.528C82.6336 27.1253 82.7363 27.606 82.9416 27.97C83.1563 28.3247 83.4783 28.502 83.9076 28.502ZM88.6913 30V23.056H90.3713L90.5113 23.952H90.5673C90.8566 23.6627 91.1646 23.4153 91.4913 23.21C91.8179 22.9953 92.2099 22.888 92.6673 22.888C93.1619 22.888 93.5586 22.9907 93.8573 23.196C94.1653 23.392 94.4079 23.6767 94.5853 24.05C94.8933 23.7327 95.2199 23.462 95.5653 23.238C95.9106 23.0047 96.3119 22.888 96.7693 22.888C97.5159 22.888 98.0619 23.14 98.4073 23.644C98.7619 24.1387 98.9393 24.82 98.9393 25.688V30H96.8813V25.954C96.8813 25.45 96.8113 25.1047 96.6713 24.918C96.5406 24.7313 96.3259 24.638 96.0273 24.638C95.6819 24.638 95.2853 24.862 94.8373 25.31V30H92.7793V25.954C92.7793 25.45 92.7093 25.1047 92.5693 24.918C92.4386 24.7313 92.2239 24.638 91.9253 24.638C91.5799 24.638 91.1879 24.862 90.7493 25.31V30H88.6913ZM103.803 30.168C103.14 30.168 102.543 30.0233 102.011 29.734C101.479 29.4447 101.059 29.0293 100.751 28.488C100.443 27.9467 100.289 27.2933 100.289 26.528C100.289 25.772 100.443 25.1233 100.751 24.582C101.068 24.0407 101.479 23.6253 101.983 23.336C102.487 23.0373 103.014 22.888 103.565 22.888C104.228 22.888 104.774 23.0373 105.203 23.336C105.642 23.6253 105.968 24.022 106.183 24.526C106.407 25.0207 106.519 25.5853 106.519 26.22C106.519 26.3973 106.51 26.5747 106.491 26.752C106.472 26.92 106.454 27.046 106.435 27.13H102.277C102.37 27.634 102.58 28.0073 102.907 28.25C103.234 28.4833 103.626 28.6 104.083 28.6C104.578 28.6 105.077 28.446 105.581 28.138L106.267 29.384C105.912 29.6267 105.516 29.818 105.077 29.958C104.638 30.098 104.214 30.168 103.803 30.168ZM102.263 25.772H104.769C104.769 25.3893 104.676 25.0767 104.489 24.834C104.312 24.582 104.018 24.456 103.607 24.456C103.29 24.456 103.005 24.568 102.753 24.792C102.501 25.0067 102.338 25.3333 102.263 25.772ZM107.941 30V23.056H109.621L109.761 24.274H109.817C110.069 23.8073 110.373 23.462 110.727 23.238C111.082 23.0047 111.437 22.888 111.791 22.888C111.987 22.888 112.151 22.902 112.281 22.93C112.412 22.9487 112.524 22.9813 112.617 23.028L112.281 24.806C112.16 24.7687 112.039 24.7407 111.917 24.722C111.805 24.7033 111.675 24.694 111.525 24.694C111.264 24.694 110.989 24.792 110.699 24.988C110.419 25.1747 110.186 25.5013 109.999 25.968V30H107.941ZM116.49 30V20.872H118.548V30H116.49ZM120.533 30V23.056H122.213L122.353 23.938H122.409C122.708 23.658 123.034 23.4153 123.389 23.21C123.753 22.9953 124.168 22.888 124.635 22.888C125.391 22.888 125.937 23.14 126.273 23.644C126.618 24.1387 126.791 24.82 126.791 25.688V30H124.733V25.954C124.733 25.45 124.663 25.1047 124.523 24.918C124.392 24.7313 124.178 24.638 123.879 24.638C123.618 24.638 123.394 24.6987 123.207 24.82C123.02 24.932 122.815 25.0953 122.591 25.31V30H120.533ZM128.895 30V24.666H127.971V23.14L128.895 23.07V22.692C128.895 22.1973 128.979 21.7493 129.147 21.348C129.315 20.9467 129.585 20.6247 129.959 20.382C130.332 20.1393 130.831 20.018 131.457 20.018C131.746 20.018 132.012 20.046 132.255 20.102C132.497 20.158 132.693 20.214 132.843 20.27L132.465 21.782C132.343 21.7353 132.222 21.7027 132.101 21.684C131.979 21.656 131.863 21.642 131.751 21.642C131.499 21.642 131.303 21.7213 131.163 21.88C131.023 22.0293 130.953 22.2813 130.953 22.636V23.056H132.199V24.666H130.953V30H128.895ZM136.162 30.168C135.574 30.168 135.018 30.028 134.496 29.748C133.982 29.4587 133.567 29.0433 133.25 28.502C132.932 27.9513 132.774 27.2933 132.774 26.528C132.774 25.7533 132.932 25.0953 133.25 24.554C133.567 24.0127 133.982 23.602 134.496 23.322C135.018 23.0327 135.574 22.888 136.162 22.888C136.75 22.888 137.3 23.0327 137.814 23.322C138.327 23.602 138.742 24.0127 139.06 24.554C139.377 25.0953 139.536 25.7533 139.536 26.528C139.536 27.2933 139.377 27.9513 139.06 28.502C138.742 29.0433 138.327 29.4587 137.814 29.748C137.3 30.028 136.75 30.168 136.162 30.168ZM136.162 28.502C136.582 28.502 136.899 28.3247 137.114 27.97C137.328 27.606 137.436 27.1253 137.436 26.528C137.436 25.9213 137.328 25.4407 137.114 25.086C136.899 24.7313 136.582 24.554 136.162 24.554C135.732 24.554 135.41 24.7313 135.196 25.086C134.99 25.4407 134.888 25.9213 134.888 26.528C134.888 27.1253 134.99 27.606 135.196 27.97C135.41 28.3247 135.732 28.502 136.162 28.502ZM140.945 30V23.056H142.625L142.765 24.274H142.821C143.073 23.8073 143.376 23.462 143.731 23.238C144.086 23.0047 144.44 22.888 144.795 22.888C144.991 22.888 145.154 22.902 145.285 22.93C145.416 22.9487 145.528 22.9813 145.621 23.028L145.285 24.806C145.164 24.7687 145.042 24.7407 144.921 24.722C144.809 24.7033 144.678 24.694 144.529 24.694C144.268 24.694 143.992 24.792 143.703 24.988C143.423 25.1747 143.19 25.5013 143.003 25.968V30H140.945ZM146.523 30V23.056H148.203L148.343 23.952H148.399C148.689 23.6627 148.997 23.4153 149.323 23.21C149.65 22.9953 150.042 22.888 150.499 22.888C150.994 22.888 151.391 22.9907 151.689 23.196C151.997 23.392 152.24 23.6767 152.417 24.05C152.725 23.7327 153.052 23.462 153.397 23.238C153.743 23.0047 154.144 22.888 154.601 22.888C155.348 22.888 155.894 23.14 156.239 23.644C156.594 24.1387 156.771 24.82 156.771 25.688V30H154.713V25.954C154.713 25.45 154.643 25.1047 154.503 24.918C154.373 24.7313 154.158 24.638 153.859 24.638C153.514 24.638 153.117 24.862 152.669 25.31V30H150.611V25.954C150.611 25.45 150.541 25.1047 150.401 24.918C150.271 24.7313 150.056 24.638 149.757 24.638C149.412 24.638 149.02 24.862 148.581 25.31V30H146.523ZM160.277 30.168C159.643 30.168 159.139 29.9673 158.765 29.566C158.392 29.1553 158.205 28.656 158.205 28.068C158.205 27.34 158.513 26.7707 159.129 26.36C159.745 25.9493 160.739 25.674 162.111 25.534C162.093 25.226 161.999 24.9833 161.831 24.806C161.673 24.6193 161.402 24.526 161.019 24.526C160.73 24.526 160.436 24.582 160.137 24.694C159.839 24.806 159.521 24.96 159.185 25.156L158.443 23.798C158.882 23.5273 159.349 23.308 159.843 23.14C160.347 22.972 160.87 22.888 161.411 22.888C162.298 22.888 162.979 23.1447 163.455 23.658C163.931 24.1713 164.169 24.96 164.169 26.024V30H162.489L162.349 29.286H162.293C162.004 29.5473 161.691 29.762 161.355 29.93C161.029 30.0887 160.669 30.168 160.277 30.168ZM160.977 28.572C161.211 28.572 161.411 28.5207 161.579 28.418C161.757 28.306 161.934 28.1613 162.111 27.984V26.766C161.383 26.8593 160.879 27.0087 160.599 27.214C160.319 27.41 160.179 27.6433 160.179 27.914C160.179 28.138 160.249 28.306 160.389 28.418C160.539 28.5207 160.735 28.572 160.977 28.572ZM168.338 30.168C167.479 30.168 166.863 29.9207 166.49 29.426C166.126 28.9313 165.944 28.2827 165.944 27.48V24.666H164.992V23.14L166.056 23.056L166.294 21.208H168.002V23.056H169.668V24.666H168.002V27.452C168.002 27.844 168.081 28.1287 168.24 28.306C168.408 28.474 168.627 28.558 168.898 28.558C169.01 28.558 169.122 28.544 169.234 28.516C169.355 28.488 169.463 28.4553 169.556 28.418L169.878 29.916C169.701 29.972 169.481 30.028 169.22 30.084C168.968 30.14 168.674 30.168 168.338 30.168ZM171.023 30V23.056H173.081V30H171.023ZM172.045 22.034C171.7 22.034 171.42 21.936 171.205 21.74C170.991 21.544 170.883 21.2827 170.883 20.956C170.883 20.6293 170.991 20.368 171.205 20.172C171.42 19.976 171.7 19.878 172.045 19.878C172.391 19.878 172.671 19.976 172.885 20.172C173.1 20.368 173.207 20.6293 173.207 20.956C173.207 21.2827 173.1 21.544 172.885 21.74C172.671 21.936 172.391 22.034 172.045 22.034ZM177.874 30.168C177.286 30.168 176.731 30.028 176.208 29.748C175.695 29.4587 175.28 29.0433 174.962 28.502C174.645 27.9513 174.486 27.2933 174.486 26.528C174.486 25.7533 174.645 25.0953 174.962 24.554C175.28 24.0127 175.695 23.602 176.208 23.322C176.731 23.0327 177.286 22.888 177.874 22.888C178.462 22.888 179.013 23.0327 179.526 23.322C180.04 23.602 180.455 24.0127 180.772 24.554C181.09 25.0953 181.248 25.7533 181.248 26.528C181.248 27.2933 181.09 27.9513 180.772 28.502C180.455 29.0433 180.04 29.4587 179.526 29.748C179.013 30.028 178.462 30.168 177.874 30.168ZM177.874 28.502C178.294 28.502 178.612 28.3247 178.826 27.97C179.041 27.606 179.148 27.1253 179.148 26.528C179.148 25.9213 179.041 25.4407 178.826 25.086C178.612 24.7313 178.294 24.554 177.874 24.554C177.445 24.554 177.123 24.7313 176.908 25.086C176.703 25.4407 176.6 25.9213 176.6 26.528C176.6 27.1253 176.703 27.606 176.908 27.97C177.123 28.3247 177.445 28.502 177.874 28.502ZM182.658 30V23.056H184.338L184.478 23.938H184.534C184.833 23.658 185.159 23.4153 185.514 23.21C185.878 22.9953 186.293 22.888 186.76 22.888C187.516 22.888 188.062 23.14 188.398 23.644C188.743 24.1387 188.916 24.82 188.916 25.688V30H186.858V25.954C186.858 25.45 186.788 25.1047 186.648 24.918C186.517 24.7313 186.303 24.638 186.004 24.638C185.743 24.638 185.519 24.6987 185.332 24.82C185.145 24.932 184.94 25.0953 184.716 25.31V30H182.658ZM196.427 30.168C195.829 30.168 195.232 30.056 194.635 29.832C194.047 29.608 193.519 29.2813 193.053 28.852L194.229 27.438C194.555 27.718 194.919 27.9467 195.321 28.124C195.722 28.3013 196.109 28.39 196.483 28.39C196.912 28.39 197.229 28.3107 197.435 28.152C197.649 27.9933 197.757 27.7787 197.757 27.508C197.757 27.2187 197.635 27.0087 197.393 26.878C197.159 26.738 196.842 26.584 196.441 26.416L195.251 25.912C194.943 25.7813 194.649 25.6087 194.369 25.394C194.089 25.17 193.86 24.8947 193.683 24.568C193.505 24.2413 193.417 23.8587 193.417 23.42C193.417 22.916 193.552 22.4587 193.823 22.048C194.103 21.6373 194.485 21.3107 194.971 21.068C195.465 20.8253 196.03 20.704 196.665 20.704C197.187 20.704 197.71 20.8067 198.233 21.012C198.755 21.2173 199.213 21.516 199.605 21.908L198.555 23.21C198.256 22.9767 197.957 22.7993 197.659 22.678C197.36 22.5473 197.029 22.482 196.665 22.482C196.31 22.482 196.025 22.5567 195.811 22.706C195.605 22.846 195.503 23.0467 195.503 23.308C195.503 23.588 195.633 23.798 195.895 23.938C196.165 24.078 196.497 24.2273 196.889 24.386L198.065 24.862C198.615 25.086 199.054 25.394 199.381 25.786C199.707 26.178 199.871 26.696 199.871 27.34C199.871 27.844 199.735 28.3107 199.465 28.74C199.194 29.1693 198.802 29.5147 198.289 29.776C197.775 30.0373 197.155 30.168 196.427 30.168ZM203.002 30.168C202.367 30.168 201.863 29.9673 201.49 29.566C201.116 29.1553 200.93 28.656 200.93 28.068C200.93 27.34 201.238 26.7707 201.854 26.36C202.47 25.9493 203.464 25.674 204.836 25.534C204.817 25.226 204.724 24.9833 204.556 24.806C204.397 24.6193 204.126 24.526 203.744 24.526C203.454 24.526 203.16 24.582 202.862 24.694C202.563 24.806 202.246 24.96 201.91 25.156L201.168 23.798C201.606 23.5273 202.073 23.308 202.568 23.14C203.072 22.972 203.594 22.888 204.136 22.888C205.022 22.888 205.704 23.1447 206.18 23.658C206.656 24.1713 206.894 24.96 206.894 26.024V30H205.214L205.074 29.286H205.018C204.728 29.5473 204.416 29.762 204.08 29.93C203.753 30.0887 203.394 30.168 203.002 30.168ZM203.702 28.572C203.935 28.572 204.136 28.5207 204.304 28.418C204.481 28.306 204.658 28.1613 204.836 27.984V26.766C204.108 26.8593 203.604 27.0087 203.324 27.214C203.044 27.41 202.904 27.6433 202.904 27.914C202.904 28.138 202.974 28.306 203.114 28.418C203.263 28.5207 203.459 28.572 203.702 28.572ZM210.231 30L207.893 23.056H209.965L210.861 26.332C210.954 26.6773 211.043 27.032 211.127 27.396C211.22 27.7507 211.313 28.11 211.407 28.474H211.463C211.547 28.11 211.631 27.7507 211.715 27.396C211.808 27.032 211.901 26.6773 211.995 26.332L212.905 23.056H214.879L212.611 30H210.231ZM218.961 30.168C218.299 30.168 217.701 30.0233 217.169 29.734C216.637 29.4447 216.217 29.0293 215.909 28.488C215.601 27.9467 215.447 27.2933 215.447 26.528C215.447 25.772 215.601 25.1233 215.909 24.582C216.227 24.0407 216.637 23.6253 217.141 23.336C217.645 23.0373 218.173 22.888 218.723 22.888C219.386 22.888 219.932 23.0373 220.361 23.336C220.8 23.6253 221.127 24.022 221.341 24.526C221.565 25.0207 221.677 25.5853 221.677 26.22C221.677 26.3973 221.668 26.5747 221.649 26.752C221.631 26.92 221.612 27.046 221.593 27.13H217.435C217.529 27.634 217.739 28.0073 218.065 28.25C218.392 28.4833 218.784 28.6 219.241 28.6C219.736 28.6 220.235 28.446 220.739 28.138L221.425 29.384C221.071 29.6267 220.674 29.818 220.235 29.958C219.797 30.098 219.372 30.168 218.961 30.168ZM217.421 25.772H219.927C219.927 25.3893 219.834 25.0767 219.647 24.834C219.47 24.582 219.176 24.456 218.765 24.456C218.448 24.456 218.163 24.568 217.911 24.792C217.659 25.0067 217.496 25.3333 217.421 25.772ZM225.577 30.168C224.719 30.168 224.028 29.846 223.505 29.202C222.992 28.5487 222.735 27.6573 222.735 26.528C222.735 25.772 222.871 25.1233 223.141 24.582C223.421 24.0313 223.781 23.6113 224.219 23.322C224.667 23.0327 225.134 22.888 225.619 22.888C226.002 22.888 226.324 22.9533 226.585 23.084C226.847 23.2147 227.094 23.392 227.327 23.616L227.243 22.552V20.186H229.301V30H227.621L227.481 29.314H227.425C227.183 29.5567 226.898 29.762 226.571 29.93C226.245 30.0887 225.913 30.168 225.577 30.168ZM226.109 28.488C226.333 28.488 226.534 28.4413 226.711 28.348C226.898 28.2547 227.075 28.0913 227.243 27.858V25.016C227.066 24.848 226.875 24.7313 226.669 24.666C226.473 24.6007 226.282 24.568 226.095 24.568C225.769 24.568 225.479 24.7267 225.227 25.044C224.975 25.352 224.849 25.8373 224.849 26.5C224.849 27.1813 224.957 27.6853 225.171 28.012C225.395 28.3293 225.708 28.488 226.109 28.488Z" fill="white"/>
<path d="M269.001 26.3998L264.101 31.2998C263.917 31.4831 263.684 31.5748 263.401 31.5748C263.117 31.5748 262.884 31.4831 262.701 31.2998C262.517 31.1165 262.426 30.8831 262.426 30.5998C262.426 30.3165 262.517 30.0831 262.701 29.8998L267.601 24.9998L262.701 20.0998C262.517 19.9165 262.426 19.6831 262.426 19.3998C262.426 19.1165 262.517 18.8831 262.701 18.6998C262.884 18.5165 263.117 18.4248 263.401 18.4248C263.684 18.4248 263.917 18.5165 264.101 18.6998L269.001 23.5998L273.901 18.6998C274.084 18.5165 274.317 18.4248 274.601 18.4248C274.884 18.4248 275.117 18.5165 275.301 18.6998C275.484 18.8831 275.576 19.1165 275.576 19.3998C275.576 19.6831 275.484 19.9165 275.301 20.0998L270.401 24.9998L275.301 29.8998C275.484 30.0831 275.576 30.3165 275.576 30.5998C275.576 30.8831 275.484 31.1165 275.301 31.2998C275.117 31.4831 274.884 31.5748 274.601 31.5748C274.317 31.5748 274.084 31.4831 273.901 31.2998L269.001 26.3998Z" fill="white"/>
<line x1="248.25" y1="-1.09279e-08" x2="248.25" y2="50" stroke="#404547" stroke-width="0.5"/>
</svg>
