<svg width="291" height="50" viewBox="0 0 291 50" fill="none" xmlns="http://www.w3.org/2000/svg">
<rect width="291" height="50" rx="16" fill="#292C2D"/>
<rect x="10" y="10" width="30" height="30" rx="15" fill="#9DE6A9"/>
<path fill-rule="evenodd" clip-rule="evenodd" d="M34.546 18.1106C34.8272 18.3919 34.9852 18.7733 34.9852 19.1711C34.9852 19.5688 34.8272 19.9503 34.546 20.2316L23.303 31.4746C23.1544 31.6232 22.978 31.7411 22.7839 31.8215C22.5898 31.9019 22.3817 31.9433 22.1715 31.9433C21.9614 31.9433 21.7533 31.9019 21.5591 31.8215C21.365 31.7411 21.1886 31.6232 21.04 31.4746L15.454 25.8896C15.3108 25.7512 15.1965 25.5857 15.1179 25.4027C15.0393 25.2197 14.9979 25.0228 14.9962 24.8237C14.9944 24.6245 15.0324 24.427 15.1078 24.2426C15.1832 24.0583 15.2946 23.8908 15.4354 23.75C15.5763 23.6091 15.7438 23.4978 15.9281 23.4223C16.1124 23.3469 16.31 23.309 16.5091 23.3107C16.7083 23.3124 16.9051 23.3538 17.0881 23.4324C17.2711 23.511 17.4367 23.6253 17.575 23.7686L22.171 28.3646L32.424 18.1106C32.5633 17.9712 32.7287 17.8606 32.9108 17.7852C33.0928 17.7097 33.288 17.6709 33.485 17.6709C33.6821 17.6709 33.8772 17.7097 34.0593 17.7852C34.2413 17.8606 34.4067 17.9712 34.546 18.1106Z" fill="#094D16"/>
<path d="M58.11 30.168C57.2793 30.168 56.5233 29.9907 55.842 29.636C55.17 29.2813 54.6333 28.7587 54.232 28.068C53.84 27.368 53.644 26.5093 53.644 25.492C53.644 24.484 53.8447 23.6253 54.246 22.916C54.6567 22.1973 55.198 21.6513 55.87 21.278C56.542 20.8953 57.284 20.704 58.096 20.704C58.7587 20.704 59.328 20.8253 59.804 21.068C60.28 21.3107 60.6673 21.586 60.966 21.894L59.888 23.21C59.6547 23.0047 59.4073 22.832 59.146 22.692C58.8847 22.552 58.558 22.482 58.166 22.482C57.4567 22.482 56.878 22.7433 56.43 23.266C55.982 23.7887 55.758 24.5073 55.758 25.422C55.758 26.3553 55.9727 27.0833 56.402 27.606C56.8313 28.1287 57.4707 28.39 58.32 28.39C58.5067 28.39 58.6887 28.3667 58.866 28.32C59.0433 28.2733 59.188 28.2033 59.3 28.11V26.542H57.788V24.862H61.12V29.062C60.8027 29.37 60.378 29.6313 59.846 29.846C59.3233 30.0607 58.7447 30.168 58.11 30.168ZM62.8377 30V23.056H64.5177L64.6577 24.274H64.7137C64.9657 23.8073 65.2691 23.462 65.6237 23.238C65.9784 23.0047 66.3331 22.888 66.6877 22.888C66.8837 22.888 67.0471 22.902 67.1777 22.93C67.3084 22.9487 67.4204 22.9813 67.5137 23.028L67.1777 24.806C67.0564 24.7687 66.9351 24.7407 66.8137 24.722C66.7017 24.7033 66.5711 24.694 66.4217 24.694C66.1604 24.694 65.8851 24.792 65.5957 24.988C65.3157 25.1747 65.0824 25.5013 64.8957 25.968V30H62.8377ZM71.2611 30.168C70.6731 30.168 70.1178 30.028 69.5951 29.748C69.0818 29.4587 68.6665 29.0433 68.3491 28.502C68.0318 27.9513 67.8731 27.2933 67.8731 26.528C67.8731 25.7533 68.0318 25.0953 68.3491 24.554C68.6665 24.0127 69.0818 23.602 69.5951 23.322C70.1178 23.0327 70.6731 22.888 71.2611 22.888C71.8491 22.888 72.3998 23.0327 72.9131 23.322C73.4265 23.602 73.8418 24.0127 74.1591 24.554C74.4765 25.0953 74.6351 25.7533 74.6351 26.528C74.6351 27.2933 74.4765 27.9513 74.1591 28.502C73.8418 29.0433 73.4265 29.4587 72.9131 29.748C72.3998 30.028 71.8491 30.168 71.2611 30.168ZM71.2611 28.502C71.6811 28.502 71.9985 28.3247 72.2131 27.97C72.4278 27.606 72.5351 27.1253 72.5351 26.528C72.5351 25.9213 72.4278 25.4407 72.2131 25.086C71.9985 24.7313 71.6811 24.554 71.2611 24.554C70.8318 24.554 70.5098 24.7313 70.2951 25.086C70.0898 25.4407 69.9871 25.9213 69.9871 26.528C69.9871 27.1253 70.0898 27.606 70.2951 27.97C70.5098 28.3247 70.8318 28.502 71.2611 28.502ZM79.0268 30.168C78.4388 30.168 77.8834 30.028 77.3608 29.748C76.8474 29.4587 76.4321 29.0433 76.1148 28.502C75.7974 27.9513 75.6388 27.2933 75.6388 26.528C75.6388 25.7533 75.7974 25.0953 76.1148 24.554C76.4321 24.0127 76.8474 23.602 77.3608 23.322C77.8834 23.0327 78.4388 22.888 79.0268 22.888C79.6148 22.888 80.1654 23.0327 80.6788 23.322C81.1921 23.602 81.6074 24.0127 81.9248 24.554C82.2421 25.0953 82.4008 25.7533 82.4008 26.528C82.4008 27.2933 82.2421 27.9513 81.9248 28.502C81.6074 29.0433 81.1921 29.4587 80.6788 29.748C80.1654 30.028 79.6148 30.168 79.0268 30.168ZM79.0268 28.502C79.4468 28.502 79.7641 28.3247 79.9788 27.97C80.1934 27.606 80.3008 27.1253 80.3008 26.528C80.3008 25.9213 80.1934 25.4407 79.9788 25.086C79.7641 24.7313 79.4468 24.554 79.0268 24.554C78.5974 24.554 78.2754 24.7313 78.0608 25.086C77.8554 25.4407 77.7528 25.9213 77.7528 26.528C77.7528 27.1253 77.8554 27.606 78.0608 27.97C78.2754 28.3247 78.5974 28.502 79.0268 28.502ZM83.8104 30V23.056H85.4904L85.6304 23.952H85.6864C85.9757 23.6627 86.2837 23.4153 86.6104 23.21C86.9371 22.9953 87.3291 22.888 87.7864 22.888C88.2811 22.888 88.6777 22.9907 88.9764 23.196C89.2844 23.392 89.5271 23.6767 89.7044 24.05C90.0124 23.7327 90.3391 23.462 90.6844 23.238C91.0297 23.0047 91.4311 22.888 91.8884 22.888C92.6351 22.888 93.1811 23.14 93.5264 23.644C93.8811 24.1387 94.0584 24.82 94.0584 25.688V30H92.0004V25.954C92.0004 25.45 91.9304 25.1047 91.7904 24.918C91.6597 24.7313 91.4451 24.638 91.1464 24.638C90.8011 24.638 90.4044 24.862 89.9564 25.31V30H87.8984V25.954C87.8984 25.45 87.8284 25.1047 87.6884 24.918C87.5577 24.7313 87.3431 24.638 87.0444 24.638C86.6991 24.638 86.3071 24.862 85.8684 25.31V30H83.8104ZM100.927 25.38L100.703 26.22H102.649L102.439 25.38C102.318 24.9227 102.192 24.4373 102.061 23.924C101.94 23.4107 101.818 22.916 101.697 22.44H101.641C101.529 22.9253 101.412 23.4247 101.291 23.938C101.179 24.442 101.058 24.9227 100.927 25.38ZM97.623 30L100.479 20.872H102.957L105.813 30H103.629L103.069 27.83H100.283L99.723 30H97.623ZM106.642 32.576V23.056H108.322L108.462 23.742H108.518C108.789 23.4993 109.092 23.2987 109.428 23.14C109.774 22.972 110.128 22.888 110.492 22.888C111.332 22.888 111.995 23.21 112.48 23.854C112.966 24.4887 113.208 25.3427 113.208 26.416C113.208 27.2093 113.068 27.886 112.788 28.446C112.508 29.006 112.144 29.4353 111.696 29.734C111.258 30.0233 110.786 30.168 110.282 30.168C109.984 30.168 109.694 30.1073 109.414 29.986C109.134 29.8553 108.873 29.6733 108.63 29.44L108.7 30.546V32.576H106.642ZM109.806 28.488C110.161 28.488 110.464 28.3247 110.716 27.998C110.968 27.6713 111.094 27.1533 111.094 26.444C111.094 25.1933 110.693 24.568 109.89 24.568C109.489 24.568 109.092 24.778 108.7 25.198V28.04C108.887 28.208 109.074 28.3247 109.26 28.39C109.447 28.4553 109.629 28.488 109.806 28.488ZM114.668 32.576V23.056H116.348L116.488 23.742H116.544C116.814 23.4993 117.118 23.2987 117.454 23.14C117.799 22.972 118.154 22.888 118.518 22.888C119.358 22.888 120.02 23.21 120.506 23.854C120.991 24.4887 121.234 25.3427 121.234 26.416C121.234 27.2093 121.094 27.886 120.814 28.446C120.534 29.006 120.17 29.4353 119.722 29.734C119.283 30.0233 118.812 30.168 118.308 30.168C118.009 30.168 117.72 30.1073 117.44 29.986C117.16 29.8553 116.898 29.6733 116.656 29.44L116.726 30.546V32.576H114.668ZM117.832 28.488C118.186 28.488 118.49 28.3247 118.742 27.998C118.994 27.6713 119.12 27.1533 119.12 26.444C119.12 25.1933 118.718 24.568 117.916 24.568C117.514 24.568 117.118 24.778 116.726 25.198V28.04C116.912 28.208 117.099 28.3247 117.286 28.39C117.472 28.4553 117.654 28.488 117.832 28.488ZM125.675 30.168C125.087 30.168 124.532 30.028 124.009 29.748C123.496 29.4587 123.081 29.0433 122.763 28.502C122.446 27.9513 122.287 27.2933 122.287 26.528C122.287 25.7533 122.446 25.0953 122.763 24.554C123.081 24.0127 123.496 23.602 124.009 23.322C124.532 23.0327 125.087 22.888 125.675 22.888C126.263 22.888 126.814 23.0327 127.327 23.322C127.841 23.602 128.256 24.0127 128.573 24.554C128.891 25.0953 129.049 25.7533 129.049 26.528C129.049 27.2933 128.891 27.9513 128.573 28.502C128.256 29.0433 127.841 29.4587 127.327 29.748C126.814 30.028 126.263 30.168 125.675 30.168ZM125.675 28.502C126.095 28.502 126.413 28.3247 126.627 27.97C126.842 27.606 126.949 27.1253 126.949 26.528C126.949 25.9213 126.842 25.4407 126.627 25.086C126.413 24.7313 126.095 24.554 125.675 24.554C125.246 24.554 124.924 24.7313 124.709 25.086C124.504 25.4407 124.401 25.9213 124.401 26.528C124.401 27.1253 124.504 27.606 124.709 27.97C124.924 28.3247 125.246 28.502 125.675 28.502ZM130.459 30V23.056H132.517V30H130.459ZM131.481 22.034C131.135 22.034 130.855 21.936 130.641 21.74C130.426 21.544 130.319 21.2827 130.319 20.956C130.319 20.6293 130.426 20.368 130.641 20.172C130.855 19.976 131.135 19.878 131.481 19.878C131.826 19.878 132.106 19.976 132.321 20.172C132.535 20.368 132.643 20.6293 132.643 20.956C132.643 21.2827 132.535 21.544 132.321 21.74C132.106 21.936 131.826 22.034 131.481 22.034ZM134.328 30V23.056H136.008L136.148 23.938H136.204C136.503 23.658 136.829 23.4153 137.184 23.21C137.548 22.9953 137.963 22.888 138.43 22.888C139.186 22.888 139.732 23.14 140.068 23.644C140.413 24.1387 140.586 24.82 140.586 25.688V30H138.528V25.954C138.528 25.45 138.458 25.1047 138.318 24.918C138.187 24.7313 137.973 24.638 137.674 24.638C137.413 24.638 137.189 24.6987 137.002 24.82C136.815 24.932 136.61 25.0953 136.386 25.31V30H134.328ZM145.014 30.168C144.155 30.168 143.539 29.9207 143.166 29.426C142.802 28.9313 142.62 28.2827 142.62 27.48V24.666H141.668V23.14L142.732 23.056L142.97 21.208H144.678V23.056H146.344V24.666H144.678V27.452C144.678 27.844 144.757 28.1287 144.916 28.306C145.084 28.474 145.303 28.558 145.574 28.558C145.686 28.558 145.798 28.544 145.91 28.516C146.031 28.488 146.138 28.4553 146.232 28.418L146.554 29.916C146.376 29.972 146.157 30.028 145.896 30.084C145.644 30.14 145.35 30.168 145.014 30.168ZM147.699 30V23.056H149.379L149.519 23.952H149.575C149.864 23.6627 150.172 23.4153 150.499 23.21C150.826 22.9953 151.218 22.888 151.675 22.888C152.17 22.888 152.566 22.9907 152.865 23.196C153.173 23.392 153.416 23.6767 153.593 24.05C153.901 23.7327 154.228 23.462 154.573 23.238C154.918 23.0047 155.32 22.888 155.777 22.888C156.524 22.888 157.07 23.14 157.415 23.644C157.77 24.1387 157.947 24.82 157.947 25.688V30H155.889V25.954C155.889 25.45 155.819 25.1047 155.679 24.918C155.548 24.7313 155.334 24.638 155.035 24.638C154.69 24.638 154.293 24.862 153.845 25.31V30H151.787V25.954C151.787 25.45 151.717 25.1047 151.577 24.918C151.446 24.7313 151.232 24.638 150.933 24.638C150.588 24.638 150.196 24.862 149.757 25.31V30H147.699ZM162.811 30.168C162.148 30.168 161.551 30.0233 161.019 29.734C160.487 29.4447 160.067 29.0293 159.759 28.488C159.451 27.9467 159.297 27.2933 159.297 26.528C159.297 25.772 159.451 25.1233 159.759 24.582C160.076 24.0407 160.487 23.6253 160.991 23.336C161.495 23.0373 162.022 22.888 162.573 22.888C163.236 22.888 163.782 23.0373 164.211 23.336C164.65 23.6253 164.976 24.022 165.191 24.526C165.415 25.0207 165.527 25.5853 165.527 26.22C165.527 26.3973 165.518 26.5747 165.499 26.752C165.48 26.92 165.462 27.046 165.443 27.13H161.285C161.378 27.634 161.588 28.0073 161.915 28.25C162.242 28.4833 162.634 28.6 163.091 28.6C163.586 28.6 164.085 28.446 164.589 28.138L165.275 29.384C164.92 29.6267 164.524 29.818 164.085 29.958C163.646 30.098 163.222 30.168 162.811 30.168ZM161.271 25.772H163.777C163.777 25.3893 163.684 25.0767 163.497 24.834C163.32 24.582 163.026 24.456 162.615 24.456C162.298 24.456 162.013 24.568 161.761 24.792C161.509 25.0067 161.346 25.3333 161.271 25.772ZM166.949 30V23.056H168.629L168.769 23.938H168.825C169.124 23.658 169.45 23.4153 169.805 23.21C170.169 22.9953 170.584 22.888 171.051 22.888C171.807 22.888 172.353 23.14 172.689 23.644C173.034 24.1387 173.207 24.82 173.207 25.688V30H171.149V25.954C171.149 25.45 171.079 25.1047 170.939 24.918C170.808 24.7313 170.594 24.638 170.295 24.638C170.034 24.638 169.81 24.6987 169.623 24.82C169.436 24.932 169.231 25.0953 169.007 25.31V30H166.949ZM177.635 30.168C176.776 30.168 176.16 29.9207 175.787 29.426C175.423 28.9313 175.241 28.2827 175.241 27.48V24.666H174.289V23.14L175.353 23.056L175.591 21.208H177.299V23.056H178.965V24.666H177.299V27.452C177.299 27.844 177.378 28.1287 177.537 28.306C177.705 28.474 177.924 28.558 178.195 28.558C178.307 28.558 178.419 28.544 178.531 28.516C178.652 28.488 178.759 28.4553 178.853 28.418L179.175 29.916C178.997 29.972 178.778 30.028 178.517 30.084C178.265 30.14 177.971 30.168 177.635 30.168ZM186.077 30.168C185.48 30.168 184.882 30.056 184.285 29.832C183.697 29.608 183.17 29.2813 182.703 28.852L183.879 27.438C184.206 27.718 184.57 27.9467 184.971 28.124C185.372 28.3013 185.76 28.39 186.133 28.39C186.562 28.39 186.88 28.3107 187.085 28.152C187.3 27.9933 187.407 27.7787 187.407 27.508C187.407 27.2187 187.286 27.0087 187.043 26.878C186.81 26.738 186.492 26.584 186.091 26.416L184.901 25.912C184.593 25.7813 184.299 25.6087 184.019 25.394C183.739 25.17 183.51 24.8947 183.333 24.568C183.156 24.2413 183.067 23.8587 183.067 23.42C183.067 22.916 183.202 22.4587 183.473 22.048C183.753 21.6373 184.136 21.3107 184.621 21.068C185.116 20.8253 185.68 20.704 186.315 20.704C186.838 20.704 187.36 20.8067 187.883 21.012C188.406 21.2173 188.863 21.516 189.255 21.908L188.205 23.21C187.906 22.9767 187.608 22.7993 187.309 22.678C187.01 22.5473 186.679 22.482 186.315 22.482C185.96 22.482 185.676 22.5567 185.461 22.706C185.256 22.846 185.153 23.0467 185.153 23.308C185.153 23.588 185.284 23.798 185.545 23.938C185.816 24.078 186.147 24.2273 186.539 24.386L187.715 24.862C188.266 25.086 188.704 25.394 189.031 25.786C189.358 26.178 189.521 26.696 189.521 27.34C189.521 27.844 189.386 28.3107 189.115 28.74C188.844 29.1693 188.452 29.5147 187.939 29.776C187.426 30.0373 186.805 30.168 186.077 30.168ZM192.652 30.168C192.018 30.168 191.514 29.9673 191.14 29.566C190.767 29.1553 190.58 28.656 190.58 28.068C190.58 27.34 190.888 26.7707 191.504 26.36C192.12 25.9493 193.114 25.674 194.486 25.534C194.468 25.226 194.374 24.9833 194.206 24.806C194.048 24.6193 193.777 24.526 193.394 24.526C193.105 24.526 192.811 24.582 192.512 24.694C192.214 24.806 191.896 24.96 191.56 25.156L190.818 23.798C191.257 23.5273 191.724 23.308 192.218 23.14C192.722 22.972 193.245 22.888 193.786 22.888C194.673 22.888 195.354 23.1447 195.83 23.658C196.306 24.1713 196.544 24.96 196.544 26.024V30H194.864L194.724 29.286H194.668C194.379 29.5473 194.066 29.762 193.73 29.93C193.404 30.0887 193.044 30.168 192.652 30.168ZM193.352 28.572C193.586 28.572 193.786 28.5207 193.954 28.418C194.132 28.306 194.309 28.1613 194.486 27.984V26.766C193.758 26.8593 193.254 27.0087 192.974 27.214C192.694 27.41 192.554 27.6433 192.554 27.914C192.554 28.138 192.624 28.306 192.764 28.418C192.914 28.5207 193.11 28.572 193.352 28.572ZM199.881 30L197.543 23.056H199.615L200.511 26.332C200.604 26.6773 200.693 27.032 200.777 27.396C200.87 27.7507 200.964 28.11 201.057 28.474H201.113C201.197 28.11 201.281 27.7507 201.365 27.396C201.458 27.032 201.552 26.6773 201.645 26.332L202.555 23.056H204.529L202.261 30H199.881ZM208.612 30.168C207.949 30.168 207.352 30.0233 206.82 29.734C206.288 29.4447 205.868 29.0293 205.56 28.488C205.252 27.9467 205.098 27.2933 205.098 26.528C205.098 25.772 205.252 25.1233 205.56 24.582C205.877 24.0407 206.288 23.6253 206.792 23.336C207.296 23.0373 207.823 22.888 208.374 22.888C209.036 22.888 209.582 23.0373 210.012 23.336C210.45 23.6253 210.777 24.022 210.992 24.526C211.216 25.0207 211.328 25.5853 211.328 26.22C211.328 26.3973 211.318 26.5747 211.3 26.752C211.281 26.92 211.262 27.046 211.244 27.13H207.086C207.179 27.634 207.389 28.0073 207.716 28.25C208.042 28.4833 208.434 28.6 208.892 28.6C209.386 28.6 209.886 28.446 210.39 28.138L211.076 29.384C210.721 29.6267 210.324 29.818 209.886 29.958C209.447 30.098 209.022 30.168 208.612 30.168ZM207.072 25.772H209.578C209.578 25.3893 209.484 25.0767 209.298 24.834C209.12 24.582 208.826 24.456 208.416 24.456C208.098 24.456 207.814 24.568 207.562 24.792C207.31 25.0067 207.146 25.3333 207.072 25.772ZM215.228 30.168C214.369 30.168 213.679 29.846 213.156 29.202C212.643 28.5487 212.386 27.6573 212.386 26.528C212.386 25.772 212.521 25.1233 212.792 24.582C213.072 24.0313 213.431 23.6113 213.87 23.322C214.318 23.0327 214.785 22.888 215.27 22.888C215.653 22.888 215.975 22.9533 216.236 23.084C216.497 23.2147 216.745 23.392 216.978 23.616L216.894 22.552V20.186H218.952V30H217.272L217.132 29.314H217.076C216.833 29.5567 216.549 29.762 216.222 29.93C215.895 30.0887 215.564 30.168 215.228 30.168ZM215.76 28.488C215.984 28.488 216.185 28.4413 216.362 28.348C216.549 28.2547 216.726 28.0913 216.894 27.858V25.016C216.717 24.848 216.525 24.7313 216.32 24.666C216.124 24.6007 215.933 24.568 215.746 24.568C215.419 24.568 215.13 24.7267 214.878 25.044C214.626 25.352 214.5 25.8373 214.5 26.5C214.5 27.1813 214.607 27.6853 214.822 28.012C215.046 28.3293 215.359 28.488 215.76 28.488Z" fill="white"/>
<path d="M269.001 26.3998L264.101 31.2998C263.917 31.4831 263.684 31.5748 263.401 31.5748C263.117 31.5748 262.884 31.4831 262.701 31.2998C262.517 31.1165 262.426 30.8831 262.426 30.5998C262.426 30.3165 262.517 30.0831 262.701 29.8998L267.601 24.9998L262.701 20.0998C262.517 19.9165 262.426 19.6831 262.426 19.3998C262.426 19.1165 262.517 18.8831 262.701 18.6998C262.884 18.5165 263.117 18.4248 263.401 18.4248C263.684 18.4248 263.917 18.5165 264.101 18.6998L269.001 23.5998L273.901 18.6998C274.084 18.5165 274.317 18.4248 274.601 18.4248C274.884 18.4248 275.117 18.5165 275.301 18.6998C275.484 18.8831 275.576 19.1165 275.576 19.3998C275.576 19.6831 275.484 19.9165 275.301 20.0998L270.401 24.9998L275.301 29.8998C275.484 30.0831 275.576 30.3165 275.576 30.5998C275.576 30.8831 275.484 31.1165 275.301 31.2998C275.117 31.4831 274.884 31.5748 274.601 31.5748C274.317 31.5748 274.084 31.4831 273.901 31.2998L269.001 26.3998Z" fill="white"/>
<line x1="248.25" y1="-1.09279e-08" x2="248.25" y2="50" stroke="#404547" stroke-width="0.5"/>
</svg>
