<svg width="291" height="50" viewBox="0 0 291 50" fill="none" xmlns="http://www.w3.org/2000/svg">
<rect width="291" height="50" rx="16" fill="#292C2D"/>
<rect x="10" y="10" width="30" height="30" rx="15" fill="#9DE6A9"/>
<path fill-rule="evenodd" clip-rule="evenodd" d="M34.546 18.1106C34.8272 18.3919 34.9852 18.7733 34.9852 19.1711C34.9852 19.5688 34.8272 19.9503 34.546 20.2316L23.303 31.4746C23.1544 31.6232 22.978 31.7411 22.7839 31.8215C22.5898 31.9019 22.3817 31.9433 22.1715 31.9433C21.9614 31.9433 21.7533 31.9019 21.5591 31.8215C21.365 31.7411 21.1886 31.6232 21.04 31.4746L15.454 25.8896C15.3108 25.7512 15.1965 25.5857 15.1179 25.4027C15.0393 25.2197 14.9979 25.0228 14.9962 24.8237C14.9944 24.6245 15.0324 24.427 15.1078 24.2426C15.1832 24.0583 15.2946 23.8908 15.4354 23.75C15.5763 23.6091 15.7438 23.4978 15.9281 23.4223C16.1124 23.3469 16.31 23.309 16.5091 23.3107C16.7083 23.3124 16.9051 23.3538 17.0881 23.4324C17.2711 23.511 17.4367 23.6253 17.575 23.7686L22.171 28.3646L32.424 18.1106C32.5633 17.9712 32.7287 17.8606 32.9108 17.7852C33.0928 17.7097 33.288 17.6709 33.485 17.6709C33.6821 17.6709 33.8772 17.7097 34.0593 17.7852C34.2413 17.8606 34.4067 17.9712 34.546 18.1106Z" fill="#094D16"/>
<path d="M54.078 30V20.872H56.654C57.5873 20.872 58.3947 21.0307 59.076 21.348C59.7573 21.6653 60.2847 22.16 60.658 22.832C61.0407 23.4947 61.232 24.3487 61.232 25.394C61.232 26.4393 61.0453 27.3027 60.672 27.984C60.2987 28.6653 59.776 29.174 59.104 29.51C58.4413 29.8367 57.662 30 56.766 30H54.078ZM56.136 28.334H56.528C57.0507 28.334 57.5033 28.2407 57.886 28.054C58.278 27.8673 58.5813 27.5593 58.796 27.13C59.0107 26.7007 59.118 26.122 59.118 25.394C59.118 24.666 59.0107 24.0967 58.796 23.686C58.5813 23.266 58.278 22.972 57.886 22.804C57.5033 22.6267 57.0507 22.538 56.528 22.538H56.136V28.334ZM64.5467 30.168C63.9121 30.168 63.4081 29.9673 63.0347 29.566C62.6614 29.1553 62.4747 28.656 62.4747 28.068C62.4747 27.34 62.7827 26.7707 63.3987 26.36C64.0147 25.9493 65.0087 25.674 66.3807 25.534C66.3621 25.226 66.2687 24.9833 66.1007 24.806C65.9421 24.6193 65.6714 24.526 65.2887 24.526C64.9994 24.526 64.7054 24.582 64.4067 24.694C64.1081 24.806 63.7907 24.96 63.4547 25.156L62.7127 23.798C63.1514 23.5273 63.6181 23.308 64.1127 23.14C64.6167 22.972 65.1394 22.888 65.6807 22.888C66.5674 22.888 67.2487 23.1447 67.7247 23.658C68.2007 24.1713 68.4387 24.96 68.4387 26.024V30H66.7587L66.6187 29.286H66.5627C66.2734 29.5473 65.9607 29.762 65.6247 29.93C65.2981 30.0887 64.9387 30.168 64.5467 30.168ZM65.2467 28.572C65.4801 28.572 65.6807 28.5207 65.8487 28.418C66.0261 28.306 66.2034 28.1613 66.3807 27.984V26.766C65.6527 26.8593 65.1487 27.0087 64.8687 27.214C64.5887 27.41 64.4487 27.6433 64.4487 27.914C64.4487 28.138 64.5187 28.306 64.6587 28.418C64.8081 28.5207 65.0041 28.572 65.2467 28.572ZM70.9495 32.716C70.7442 32.716 70.5622 32.702 70.4035 32.674C70.2542 32.646 70.1095 32.6133 69.9695 32.576L70.3335 31.008C70.3989 31.0173 70.4735 31.0313 70.5575 31.05C70.6415 31.078 70.7209 31.092 70.7955 31.092C71.1409 31.092 71.4069 31.008 71.5935 30.84C71.7802 30.672 71.9202 30.4527 72.0135 30.182L72.1115 29.818L69.4375 23.056H71.5095L72.5035 26.038C72.6062 26.3553 72.6995 26.6773 72.7835 27.004C72.8675 27.3307 72.9562 27.6667 73.0495 28.012H73.1055C73.1802 27.6853 73.2549 27.3587 73.3295 27.032C73.4135 26.696 73.4975 26.3647 73.5815 26.038L74.4215 23.056H76.3955L73.9875 30.07C73.7729 30.6487 73.5349 31.134 73.2735 31.526C73.0122 31.9273 72.6949 32.226 72.3215 32.422C71.9575 32.618 71.5002 32.716 70.9495 32.716ZM80.3949 30.168C79.7509 30.168 79.1676 30.028 78.6449 29.748C78.1316 29.4587 77.7209 29.0433 77.4129 28.502C77.1143 27.9513 76.9649 27.2933 76.9649 26.528C76.9649 25.7533 77.1329 25.0953 77.4689 24.554C77.8049 24.0127 78.2483 23.602 78.7989 23.322C79.3496 23.0327 79.9423 22.888 80.5769 22.888C81.0063 22.888 81.3843 22.958 81.7109 23.098C82.0469 23.238 82.3456 23.4153 82.6069 23.63L81.6409 24.96C81.3143 24.6893 81.0016 24.554 80.7029 24.554C80.2083 24.554 79.8116 24.7313 79.5129 25.086C79.2236 25.4407 79.0789 25.9213 79.0789 26.528C79.0789 27.1253 79.2236 27.606 79.5129 27.97C79.8116 28.3247 80.1849 28.502 80.6329 28.502C80.8569 28.502 81.0763 28.4553 81.2909 28.362C81.5056 28.2593 81.7016 28.138 81.8789 27.998L82.6909 29.342C82.3456 29.6407 81.9723 29.8553 81.5709 29.986C81.1696 30.1073 80.7776 30.168 80.3949 30.168ZM85.5194 30.168C84.8847 30.168 84.3807 29.9673 84.0074 29.566C83.634 29.1553 83.4474 28.656 83.4474 28.068C83.4474 27.34 83.7554 26.7707 84.3714 26.36C84.9874 25.9493 85.9814 25.674 87.3534 25.534C87.3347 25.226 87.2414 24.9833 87.0734 24.806C86.9147 24.6193 86.644 24.526 86.2614 24.526C85.972 24.526 85.678 24.582 85.3794 24.694C85.0807 24.806 84.7634 24.96 84.4274 25.156L83.6854 23.798C84.124 23.5273 84.5907 23.308 85.0854 23.14C85.5894 22.972 86.112 22.888 86.6534 22.888C87.54 22.888 88.2214 23.1447 88.6974 23.658C89.1734 24.1713 89.4114 24.96 89.4114 26.024V30H87.7314L87.5914 29.286H87.5354C87.246 29.5473 86.9334 29.762 86.5974 29.93C86.2707 30.0887 85.9114 30.168 85.5194 30.168ZM86.2194 28.572C86.4527 28.572 86.6534 28.5207 86.8214 28.418C86.9987 28.306 87.176 28.1613 87.3534 27.984V26.766C86.6254 26.8593 86.1214 27.0087 85.8414 27.214C85.5614 27.41 85.4214 27.6433 85.4214 27.914C85.4214 28.138 85.4914 28.306 85.6314 28.418C85.7807 28.5207 85.9767 28.572 86.2194 28.572ZM91.1522 30V23.056H92.8322L92.9722 24.274H93.0282C93.2802 23.8073 93.5835 23.462 93.9382 23.238C94.2929 23.0047 94.6475 22.888 95.0022 22.888C95.1982 22.888 95.3615 22.902 95.4922 22.93C95.6229 22.9487 95.7349 22.9813 95.8282 23.028L95.4922 24.806C95.3709 24.7687 95.2495 24.7407 95.1282 24.722C95.0162 24.7033 94.8855 24.694 94.7362 24.694C94.4749 24.694 94.1995 24.792 93.9102 24.988C93.6302 25.1747 93.3969 25.5013 93.2102 25.968V30H91.1522ZM99.7016 30.168C99.0389 30.168 98.4416 30.0233 97.9096 29.734C97.3776 29.4447 96.9576 29.0293 96.6496 28.488C96.3416 27.9467 96.1876 27.2933 96.1876 26.528C96.1876 25.772 96.3416 25.1233 96.6496 24.582C96.9669 24.0407 97.3776 23.6253 97.8816 23.336C98.3856 23.0373 98.9129 22.888 99.4636 22.888C100.126 22.888 100.672 23.0373 101.102 23.336C101.54 23.6253 101.867 24.022 102.082 24.526C102.306 25.0207 102.418 25.5853 102.418 26.22C102.418 26.3973 102.408 26.5747 102.39 26.752C102.371 26.92 102.352 27.046 102.334 27.13H98.1756C98.2689 27.634 98.4789 28.0073 98.8056 28.25C99.1323 28.4833 99.5243 28.6 99.9816 28.6C100.476 28.6 100.976 28.446 101.48 28.138L102.166 29.384C101.811 29.6267 101.414 29.818 100.976 29.958C100.537 30.098 100.112 30.168 99.7016 30.168ZM98.1616 25.772H100.668C100.668 25.3893 100.574 25.0767 100.388 24.834C100.21 24.582 99.9163 24.456 99.5056 24.456C99.1883 24.456 98.9036 24.568 98.6516 24.792C98.3996 25.0067 98.2363 25.3333 98.1616 25.772ZM108.392 30L105.634 20.872H107.818L108.91 25.128C109.05 25.6227 109.172 26.108 109.274 26.584C109.386 27.06 109.512 27.55 109.652 28.054H109.708C109.839 27.55 109.96 27.06 110.072 26.584C110.184 26.108 110.306 25.6227 110.436 25.128L111.514 20.872H113.614L110.87 30H108.392ZM114.422 30V23.056H116.48V30H114.422ZM115.444 22.034C115.098 22.034 114.818 21.936 114.604 21.74C114.389 21.544 114.282 21.2827 114.282 20.956C114.282 20.6293 114.389 20.368 114.604 20.172C114.818 19.976 115.098 19.878 115.444 19.878C115.789 19.878 116.069 19.976 116.284 20.172C116.498 20.368 116.606 20.6293 116.606 20.956C116.606 21.2827 116.498 21.544 116.284 21.74C116.069 21.936 115.789 22.034 115.444 22.034ZM120.335 30.168C119.878 30.168 119.406 30.0793 118.921 29.902C118.445 29.7247 118.03 29.4913 117.675 29.202L118.599 27.914C118.916 28.1473 119.22 28.3293 119.509 28.46C119.808 28.5813 120.102 28.642 120.391 28.642C120.699 28.642 120.923 28.5907 121.063 28.488C121.203 28.376 121.273 28.2313 121.273 28.054C121.273 27.8953 121.203 27.7647 121.063 27.662C120.932 27.5593 120.76 27.466 120.545 27.382C120.33 27.2887 120.102 27.1953 119.859 27.102C119.579 26.99 119.299 26.85 119.019 26.682C118.748 26.514 118.52 26.2993 118.333 26.038C118.146 25.7673 118.053 25.4407 118.053 25.058C118.053 24.414 118.296 23.8913 118.781 23.49C119.276 23.0887 119.92 22.888 120.713 22.888C121.245 22.888 121.712 22.9813 122.113 23.168C122.524 23.3453 122.874 23.546 123.163 23.77L122.239 25.002C121.996 24.8153 121.754 24.6707 121.511 24.568C121.268 24.4653 121.026 24.414 120.783 24.414C120.251 24.414 119.985 24.596 119.985 24.96C119.985 25.184 120.116 25.3567 120.377 25.478C120.648 25.59 120.96 25.7113 121.315 25.842C121.614 25.9447 121.903 26.08 122.183 26.248C122.472 26.4067 122.71 26.6213 122.897 26.892C123.093 27.1533 123.191 27.4987 123.191 27.928C123.191 28.5533 122.948 29.0853 122.463 29.524C121.978 29.9533 121.268 30.168 120.335 30.168ZM124.498 30V23.056H126.556V30H124.498ZM125.52 22.034C125.175 22.034 124.895 21.936 124.68 21.74C124.465 21.544 124.358 21.2827 124.358 20.956C124.358 20.6293 124.465 20.368 124.68 20.172C124.895 19.976 125.175 19.878 125.52 19.878C125.865 19.878 126.145 19.976 126.36 20.172C126.575 20.368 126.682 20.6293 126.682 20.956C126.682 21.2827 126.575 21.544 126.36 21.74C126.145 21.936 125.865 22.034 125.52 22.034ZM131.041 30.168C130.182 30.168 129.566 29.9207 129.193 29.426C128.829 28.9313 128.647 28.2827 128.647 27.48V24.666H127.695V23.14L128.759 23.056L128.997 21.208H130.705V23.056H132.371V24.666H130.705V27.452C130.705 27.844 130.784 28.1287 130.943 28.306C131.111 28.474 131.33 28.558 131.601 28.558C131.713 28.558 131.825 28.544 131.937 28.516C132.058 28.488 132.166 28.4553 132.259 28.418L132.581 29.916C132.404 29.972 132.184 30.028 131.923 30.084C131.671 30.14 131.377 30.168 131.041 30.168ZM139.483 30.168C138.886 30.168 138.288 30.056 137.691 29.832C137.103 29.608 136.576 29.2813 136.109 28.852L137.285 27.438C137.612 27.718 137.976 27.9467 138.377 28.124C138.778 28.3013 139.166 28.39 139.539 28.39C139.968 28.39 140.286 28.3107 140.491 28.152C140.706 27.9933 140.813 27.7787 140.813 27.508C140.813 27.2187 140.692 27.0087 140.449 26.878C140.216 26.738 139.898 26.584 139.497 26.416L138.307 25.912C137.999 25.7813 137.705 25.6087 137.425 25.394C137.145 25.17 136.916 24.8947 136.739 24.568C136.562 24.2413 136.473 23.8587 136.473 23.42C136.473 22.916 136.608 22.4587 136.879 22.048C137.159 21.6373 137.542 21.3107 138.027 21.068C138.522 20.8253 139.086 20.704 139.721 20.704C140.244 20.704 140.766 20.8067 141.289 21.012C141.812 21.2173 142.269 21.516 142.661 21.908L141.611 23.21C141.312 22.9767 141.014 22.7993 140.715 22.678C140.416 22.5473 140.085 22.482 139.721 22.482C139.366 22.482 139.082 22.5567 138.867 22.706C138.662 22.846 138.559 23.0467 138.559 23.308C138.559 23.588 138.69 23.798 138.951 23.938C139.222 24.078 139.553 24.2273 139.945 24.386L141.121 24.862C141.672 25.086 142.11 25.394 142.437 25.786C142.764 26.178 142.927 26.696 142.927 27.34C142.927 27.844 142.792 28.3107 142.521 28.74C142.25 29.1693 141.858 29.5147 141.345 29.776C140.832 30.0373 140.211 30.168 139.483 30.168ZM146.058 30.168C145.424 30.168 144.92 29.9673 144.546 29.566C144.173 29.1553 143.986 28.656 143.986 28.068C143.986 27.34 144.294 26.7707 144.91 26.36C145.526 25.9493 146.52 25.674 147.892 25.534C147.874 25.226 147.78 24.9833 147.612 24.806C147.454 24.6193 147.183 24.526 146.8 24.526C146.511 24.526 146.217 24.582 145.918 24.694C145.62 24.806 145.302 24.96 144.966 25.156L144.224 23.798C144.663 23.5273 145.13 23.308 145.624 23.14C146.128 22.972 146.651 22.888 147.192 22.888C148.079 22.888 148.76 23.1447 149.236 23.658C149.712 24.1713 149.95 24.96 149.95 26.024V30H148.27L148.13 29.286H148.074C147.785 29.5473 147.472 29.762 147.136 29.93C146.81 30.0887 146.45 30.168 146.058 30.168ZM146.758 28.572C146.992 28.572 147.192 28.5207 147.36 28.418C147.538 28.306 147.715 28.1613 147.892 27.984V26.766C147.164 26.8593 146.66 27.0087 146.38 27.214C146.1 27.41 145.96 27.6433 145.96 27.914C145.96 28.138 146.03 28.306 146.17 28.418C146.32 28.5207 146.516 28.572 146.758 28.572ZM153.287 30L150.949 23.056H153.021L153.917 26.332C154.011 26.6773 154.099 27.032 154.183 27.396C154.277 27.7507 154.37 28.11 154.463 28.474H154.519C154.603 28.11 154.687 27.7507 154.771 27.396C154.865 27.032 154.958 26.6773 155.051 26.332L155.961 23.056H157.935L155.667 30H153.287ZM162.018 30.168C161.355 30.168 160.758 30.0233 160.226 29.734C159.694 29.4447 159.274 29.0293 158.966 28.488C158.658 27.9467 158.504 27.2933 158.504 26.528C158.504 25.772 158.658 25.1233 158.966 24.582C159.283 24.0407 159.694 23.6253 160.198 23.336C160.702 23.0373 161.229 22.888 161.78 22.888C162.443 22.888 162.989 23.0373 163.418 23.336C163.857 23.6253 164.183 24.022 164.398 24.526C164.622 25.0207 164.734 25.5853 164.734 26.22C164.734 26.3973 164.725 26.5747 164.706 26.752C164.687 26.92 164.669 27.046 164.65 27.13H160.492C160.585 27.634 160.795 28.0073 161.122 28.25C161.449 28.4833 161.841 28.6 162.298 28.6C162.793 28.6 163.292 28.446 163.796 28.138L164.482 29.384C164.127 29.6267 163.731 29.818 163.292 29.958C162.853 30.098 162.429 30.168 162.018 30.168ZM160.478 25.772H162.984C162.984 25.3893 162.891 25.0767 162.704 24.834C162.527 24.582 162.233 24.456 161.822 24.456C161.505 24.456 161.22 24.568 160.968 24.792C160.716 25.0067 160.553 25.3333 160.478 25.772ZM168.634 30.168C167.775 30.168 167.085 29.846 166.562 29.202C166.049 28.5487 165.792 27.6573 165.792 26.528C165.792 25.772 165.927 25.1233 166.198 24.582C166.478 24.0313 166.837 23.6113 167.276 23.322C167.724 23.0327 168.191 22.888 168.676 22.888C169.059 22.888 169.381 22.9533 169.642 23.084C169.903 23.2147 170.151 23.392 170.384 23.616L170.3 22.552V20.186H172.358V30H170.678L170.538 29.314H170.482C170.239 29.5567 169.955 29.762 169.628 29.93C169.301 30.0887 168.97 30.168 168.634 30.168ZM169.166 28.488C169.39 28.488 169.591 28.4413 169.768 28.348C169.955 28.2547 170.132 28.0913 170.3 27.858V25.016C170.123 24.848 169.931 24.7313 169.726 24.666C169.53 24.6007 169.339 24.568 169.152 24.568C168.825 24.568 168.536 24.7267 168.284 25.044C168.032 25.352 167.906 25.8373 167.906 26.5C167.906 27.1813 168.013 27.6853 168.228 28.012C168.452 28.3293 168.765 28.488 169.166 28.488Z" fill="white"/>
<path d="M269.001 26.3998L264.101 31.2998C263.917 31.4831 263.684 31.5748 263.401 31.5748C263.117 31.5748 262.884 31.4831 262.701 31.2998C262.517 31.1165 262.426 30.8831 262.426 30.5998C262.426 30.3165 262.517 30.0831 262.701 29.8998L267.601 24.9998L262.701 20.0998C262.517 19.9165 262.426 19.6831 262.426 19.3998C262.426 19.1165 262.517 18.8831 262.701 18.6998C262.884 18.5165 263.117 18.4248 263.401 18.4248C263.684 18.4248 263.917 18.5165 264.101 18.6998L269.001 23.5998L273.901 18.6998C274.084 18.5165 274.317 18.4248 274.601 18.4248C274.884 18.4248 275.117 18.5165 275.301 18.6998C275.484 18.8831 275.576 19.1165 275.576 19.3998C275.576 19.6831 275.484 19.9165 275.301 20.0998L270.401 24.9998L275.301 29.8998C275.484 30.0831 275.576 30.3165 275.576 30.5998C275.576 30.8831 275.484 31.1165 275.301 31.2998C275.117 31.4831 274.884 31.5748 274.601 31.5748C274.317 31.5748 274.084 31.4831 273.901 31.2998L269.001 26.3998Z" fill="white"/>
<line x1="248.25" y1="-1.09279e-08" x2="248.25" y2="50" stroke="#404547" stroke-width="0.5"/>
</svg>
