<svg width="30" height="30" viewBox="0 0 30 30" fill="none" xmlns="http://www.w3.org/2000/svg">
<path d="M28.125 11.9531C28.125 20.1563 15.9621 26.7961 15.4441 27.0703C15.3076 27.1438 15.155 27.1822 15 27.1822C14.845 27.1822 14.6924 27.1438 14.5559 27.0703C14.0379 26.7961 1.875 20.1563 1.875 11.9531C1.87717 10.0268 2.64335 8.18005 4.00545 6.81795C5.36755 5.45585 7.21433 4.68967 9.14062 4.6875C11.5605 4.6875 13.6793 5.72813 15 7.48711C16.3207 5.72813 18.4395 4.6875 20.8594 4.6875C22.7857 4.68967 24.6325 5.45585 25.9945 6.81795C27.3566 8.18005 28.1228 10.0268 28.125 11.9531Z" fill="#171C1B"/>
</svg>
